<svg contentScriptType="text/ecmascript" xmlns:openbadges="http://openbadges.org" xmlns:xlink="http://www.w3.org/1999/xlink" zoomAndPan="magnify" contentStyleType="text/css" viewBox="0 0 400 400" id="Layer_1" preserveAspectRatio="xMidYMid meet" xmlns="http://www.w3.org/2000/svg" version="1.0"><openbadges:assertion baked-at="2025-02-20T00:21:48.878378463Z[UTC]" baked-by="BadgrPro" verify="https://api.au.badgr.io/public/assertions/YmFkZ2Vib29rLTBlYWM3MDNhLTAyYjEtNGRlMS1iMWVlLTYwMDRmYjc4Y2Q0YQ"><![CDATA[{"type":"Assertion","id":"https://api.au.badgr.io/public/assertions/YmFkZ2Vib29rLTBlYWM3MDNhLTAyYjEtNGRlMS1iMWVlLTYwMDRmYjc4Y2Q0YQ","@context":"https://w3id.org/openbadges/v2","recipient":{"type":"email","salt":"555e15e01e714aa38b9e596e5f45f2ba","hashed":true,"identity":"sha256$ccc875f545c315bddcac42f670204689f14446c5db0cb6f75cd02c159450ea09"},"badge":"https://api.au.badgr.io/public/badges/s8zJyLFwQnSlrAvxebNryQ","issuedOn":"2024-08-14T12:19:36.631Z","image":{"id":"https://api.au.badgr.io/public/assertions/YmFkZ2Vib29rLTBlYWM3MDNhLTAyYjEtNGRlMS1iMWVlLTYwMDRmYjc4Y2Q0YQ/image","caption":null},"evidence":[],"narrative":null,"expires":null,"revoked":false,"revocationReason":null,"verification":{"type":"HostedBadge","verificationProperty":null,"startsWith":null,"allowedOrigins":null,"url":null,"creator":null}}]]></openbadges:assertion>
  <defs>
    <style xml:space="preserve">
      .cls-1 {
        fill: none;
      }

      .cls-2 {
        fill: #000f46;
      }

      .cls-3 {
        fill: #ff5763;
      }

      .cls-4 {
        fill: #ff616d;
      }

      .cls-5 {
        fill: #fff;
      }
    </style>
  </defs>
  <rect width="400" y="0" height="400" class="cls-5"/>
  <rect x="20" width="360" y="20" height="360" class="cls-2"/>
  <rect width="400" y="0" height="400" class="cls-1"/>
  <g>
    <g id="Shield">
      <path class="cls-5" d="M106.14,50.11l-7.55-9.8c-1.11.69-2.84,1.37-4.59,1.37s-3.01-.16-4.49-.45c-1.83-.36-3.9-.77-7.2-.77s-5.37.41-7.2.77c-1.48.29-2.74.45-4.49.45s-3.49-.68-4.59-1.37l-7.55,9.8c.93.9,2.64,2.93,2.64,5.8,0,1.96-.29,3.74-.62,5.79-.45,2.77-.96,5.9-.96,10.57,0,8,5.1,14.9,13.32,17.99,5.94,2.24,8.43,3.88,9.45,4.79,1.02-.91,3.51-2.56,9.45-4.79,8.21-3.09,13.32-9.99,13.32-17.99,0-4.67-.51-7.8-.96-10.57-.33-2.06-.62-3.83-.62-5.79,0-2.87,1.7-4.91,2.64-5.8Z"/>
      <path class="cls-2" d="M98.59,40.3l7.55,9.8c-.93.9-2.64,2.93-2.64,5.8,0,1.96.29,3.74.62,5.79.45,2.77.96,5.9.96,10.57,0,8-5.1,14.9-13.32,17.99-5.94,2.24-8.43,3.88-9.45,4.79-1.02-.91-3.51-2.56-9.45-4.79-8.21-3.09-13.32-9.99-13.32-17.99,0-4.67.51-7.8.96-10.57.33-2.06.62-3.83.62-5.79,0-2.87-1.7-4.91-2.64-5.8l7.55-9.8c1.11.69,2.84,1.37,4.59,1.37s3.01-.16,4.49-.45c1.83-.36,3.9-.77,7.2-.77s5.37.41,7.2.77c1.48.29,2.74.45,4.49.45s3.49-.68,4.59-1.37M98.73,39.52l-.45.28c-.99.62-2.63,1.28-4.28,1.28-1.78,0-2.99-.17-4.37-.44-1.86-.37-3.96-.79-7.31-.79s-5.45.42-7.31.79c-1.38.27-2.59.44-4.37.44-1.65,0-3.29-.66-4.28-1.28l-.45-.28-.33.42-7.55,9.8-.32.42.38.37c.92.88,2.46,2.75,2.46,5.38,0,1.91-.28,3.66-.61,5.7-.45,2.79-.96,5.95-.96,10.66,0,8.25,5.25,15.36,13.7,18.54,6.04,2.27,8.4,3.91,9.27,4.68l.39.35.39-.35c.87-.77,3.23-2.41,9.27-4.68,8.45-3.18,13.7-10.29,13.7-18.54,0-4.72-.51-7.88-.96-10.66-.33-2.03-.61-3.79-.61-5.7,0-2.63,1.54-4.5,2.46-5.38l.38-.37-.32-.42-7.55-9.8-.33-.42h0Z"/>
      <path class="cls-2" d="M101.97,55.82c0-2.59,1.12-4.59,2.17-5.89l-5.99-7.76c-1.13.6-2.53.94-4.16.94-1.9,0-3.3-.19-4.79-.48-1.76-.35-3.77-.75-6.91-.75-3.14,0-5.15.4-6.91.75-1.49.3-2.88.48-4.79.48-1.63,0-3.03-.34-4.16-.94l-5.99,7.76c1.05,1.3,2.17,3.3,2.17,5.89,0,2.08-.3,3.91-.64,6.04-.44,2.71-.94,5.78-.94,10.32,0,7.35,4.72,13.69,12.32,16.56,4.72,1.78,7.41,3.23,8.92,4.29,1.52-1.06,4.2-2.51,8.92-4.29,7.6-2.86,12.32-9.21,12.32-16.56,0-4.54-.5-7.62-.94-10.32-.34-2.12-.64-3.96-.64-6.04Z"/>
      <path class="cls-2" d="M65.05,44.52c-2.97-.68-4.34-1.1-4.34-1.1,0,1.79.92,2.67.92,2.67,0,0,.2.66.76,1.64"/>
      <path class="cls-2" d="M102.01,53.78c1.33-.75,1.69-1.06,2.16-2.4,0,0,1.05-.92,1.5-1.66,1.21-1.29,1.59-2.86,1.6-2.87.94-1.11,1.25-2.66,1.25-2.66.95-1.49,1.06-2.81,1.06-2.81,0,0-2.19.73-6.85,2.22-.67.22-3.18,1.08-3.18,1.08"/>
    </g>
    <path class="cls-5" id="Nike" d="M66.65,59.98l.46,1.17,1.23-.36-.6,1.08,1.05.81-1.26.11.06,1.28-.92-.83-.99.83.09-1.22-1.2-.27,1.06-.75-.59-1.1,1.13.4.47-1.16ZM73.41,63l-1.13-.37.58,1.08-1.07.74,1.23.27-.12,1.23.97-.83.95.83-.08-1.28,1.26-.11-1.03-.79.58-1.1-1.23.33-.45-1.14-.48,1.14ZM64.85,70.37l-1.12-.37.57,1.07-1.05.73,1.2.27-.1,1.23.99-.84.92.84-.06-1.29s1.26-.11,1.26-.11l-1.04-.81.59-1.07-1.23.34-.45-1.16-.47,1.16ZM73.45,70.82l-1.08.02.9.68-.33,1.1.91-.66.92.66-.34-1.1.9-.69h-1.11l-.36-1.07-.4,1.07ZM73.36,78.39l-1.13-.39.57,1.08-1.07.73,1.22.27-.09,1.23.98-.84.93.86-.09-1.26,1.28-.15-1.04-.81.59-1.07-1.22.35-.45-1.17-.48,1.17ZM84.35,81.32c.69-.34.86-.67,1.08-1.1l.02-.04c.05-.1.09-.19.13-.29.07-.17.15-.37.3-.6,0,0,0-.01,0-.01-3.69-4.2-6.3-9.11-7.2-10.83,0-.01-.02,0-.02,0-.06,1.49-.03,4.58,1.02,6.63.59,1.15.68,1.26,2.26,3.19l.25.3.18.21s0,.03-.01.02c-.2-.1-.51-.3-.51-.3-.46-.27-1.55-1.12-2.5-2.5,0,0-.02,0-.02,0-.05,2.03.99,3.94,1.69,4.7.67.73,1.63.83,2.15.83.46,0,.9-.09,1.19-.23ZM91.07,82.61c.92-.05,2.07-.41,2.47-1,.12-.16.33-.37.8-.64.29-.15.57-.24.81-.33.72-.25,1.21-.41,1.2-1.73-5.11-3.06-7.18-6.13-7.04-6.15,0,0,.89.9,2.18,1.94,1.13.91,3.51,2.9,5.59,3.83.14.07,0,2.02-1.17,2.54-.1.05-.25.11-.43.18-.61.23-1.54.57-1.44,1.2.03.05.23.13.64.13h0c.92,0,2.11-.37,2.56-1.18.18-.33.31-.62.43-.87.37-.81.6-1.31,1.65-1.53-.44-.47-2.78-2.96-3.86-4.12-1.14-1.22-1.97-2.6-2.06-2.75,0,0-.19-.3-.46-.48-1.16-.9-2.41-1.15-3.52-1.36-1.22-.22-1.82-.45-2.24-.84-.7-.65-.58-1.69-.53-2.08,0-.02,0-.05,0-.07-.07.07-.17.24-.22.32-.18.29-.46.73-.97.73-.06,0-.12,0-.18-.02-.4-.07-.68-.27-.9-1.05-.06-.2-.17-.27-.22-.28-.06,0-.09.02-.11.04-.18.19-.14.89-.07,1.21.02.14-.02.22-.06.26-.05.06-.13.09-.21.09-.11,0-.21-.05-.25-.12-.13-.19-.26-.4-.36-.61-.08.32-.25.66-.62.66-.27,0-.51-.22-.77-.44-.29-.26-.53-.46-.73-.46-.07,0-.13.02-.19.06-.11.07-.22.11-.33.11-.14,0-.27-.06-.36-.17-.35-.45.1-1.03.27-1.22-.11-.08-.36-.16-.68-.16-.23,0-.79.05-1.04.47-.08.26.07.55.19.79.45.99,4,7.34,7.64,11.36.23.27.26.51.08.74-.49.69-.66,1.23-.5,1.62.2.49.86.59.86.59.18.03.35.05.49.05.72,0,.96-.39,1.23-.84.35-.62.69-.75.92-.75.12,0,.21.04.25.05h.01c.08.05.19.17.23.34.03.13.04.33-.13.56h0c-.15.17-.42.3-.66.41-.23.11-.5.24-.48.34.03.13.94.65,2.16.65.04,0,.08,0,.12,0ZM84.78,71c.64.94,2.36,3.43,5.3,6.78,0,0,.2.28-.09.84l-.13.2-.09-.21s-.09-.2-.28-.42c-3.59-4.12-5.14-7.66-5.12-7.67,0,0,.08,0,.42.49ZM93.62,71.34c.15-.11.23-.4.23-.87,0-.26,0-.51.15-.71.15-.2.35-.31.6-.34-.27-.16-.58-.33-.93-.52-.88-.48-2.18-1.19-3.76-2.35.38.51.86,1.02,1.42,1.5l.2.18s-.23-.05-.23-.05c-.02,0-.44-.15-.7-.32,0,0-.02,0-.03-.02-.77-.43-1.5-1.15-2.07-2.01,0,0-.75-1.24-1.67-3.31-.27-.62-1.73-3.1-2.29-3.63-.88-.18-2.01-.19-2.33-.19-.17,0-.32,0-.42,0-.67.04-1.18.16-1.44.26-1.15,3.19-1.52,5.44-1.63,6.76v.11c.28-.13.61-.2.95-.2.62,0,1.17.24,1.28.56.09.29-.04.45-.17.6-.08.09-.16.19-.2.32.13-.07.27-.1.41-.1.45,0,.83.34,1.12.6h0c.22.21.32.27.36.29.04-.07.15-.33.21-1.22,0,0,0,0,0-.01-.47-2.76.97-4.71.97-4.71,0,0-.94,3.17-.24,5.1.12-.48.4-.63.63-.67.03,0,.07-.01.11-.01.3,0,.67.22.8.7.17.59.28.61.45.64.02,0,.05,0,.07,0,.17,0,.28-.14.48-.46.17-.27.38-.61.76-.61.04,0,.09,0,.14.02.18.04.44.23.39.6-.24,1.91.61,2.08,2.3,2.41.94.18,2.09.41,3.2,1.09-.12-.26-.34-.49-.49-.65-.07-.07-.12-.13-.15-.17l-.08-.11h.13s1.13.12,1.38,1.53c0,0,0,0,0,0,.01,0,.04,0,.07-.03ZM94.82,69.95c-.06,0-.12,0-.19.02-.22.06-.24.23-.24.55,0,.23-.01.52-.16.78.67-.14,1.09-.49,1.08-.89,0-.15-.07-.28-.18-.37-.08-.06-.19-.09-.31-.09ZM86.91,61.31s.04.02.05,0c.48-.57.15-1.8.05-2.26.68.41,1.61.7,2.12.74.06-.58-.09-1.18-.34-1.87.76.55,1.89.88,2.28.86.09-.61-.37-1.76-.4-1.92.29.11.97.5,1.54.57.15-.37.25-.98.19-1.56,0,0-1.06.2-1.58.2-.14,0-.27,0-.39-.02-.3-.02-.83-.13-1.36-.24-.31-.06-.61-.12-.89-.17-.11-.02-.22-.04-.31-.06-.3-.06-.55-.09-.94-.13-.14-.01-.42-.02-.54-.03,0,0,0,0,0,0-.19,1.16-.86,2.19-1.23,2.74-.05.08-.1.15-.14.21,0,0,0,0,0,0,.71,1,1.73,2.64,1.91,2.92ZM74.24,54.07c-.26-.24-.36-.51-.28-.78-.49-.06-1.32-.22-2-.59-.3.07-1.24.26-2.43.26-.26,0-.54,0-.84-.02.02.02.05.03.07.05.25.16.51.33.76.38.1-.02.34-.03.95-.08.09,0,.18,0,.27,0,.64,0,1.33.22,2.12.68.07.03.71.28,1.05.46.06-.08.17-.2.32-.35ZM101.94,53.18c.54-.15,1.15-.7,1.5-1.32-.69.4-1.25.56-1.9.56h0c-.13,0-.26,0-.41-.02-.1.16-.2.45-.73.71.53.22,1.28.14,1.55.07ZM93.29,53.31c.28-.03.52-.06.74-.09,1.4-.16,1.62-.19,1.84-.33.03-.02.08-.07.13-.12.17-.17.43-.43.73-.47.04,0,.08-.01.12-.02.04,0,.08-.01.12-.02.13-.02.23-.04.33-.11.24-.17.47-.34.7-.35,0,0,0,0,.01,0,.18,0,.26.17.28.23.05.09.04.31.03.46.06-.01.14-.04.21-.07.02,0,.04-.02.07-.03.09-.04.21-.09.33-.13.08-.03.14-.04.2-.04.13,0,.21.07.29.15.13.13.2.32.21.46.38-.11.73-.37.88-.55-.57-.16-1.32-.52-1.77-1.08-.19-.24-.26-.47-.28-.65-2.05.78-5.55,1.56-6.69,1.8.04.13.03.26,0,.39-.03.11-.09.21-.17.31.12.11.4.38.4.38,0,0,1.12-.12,1.29-.14ZM75.02,52.69c-.05-.09-.09-.21-.09-.32-1.34-.81-2.88-1.06-3.75-1.13.25.36.56.64.94.88.88.55,2.28.63,2.47.64.08-.02.25-.05.43-.07ZM71.3,52.24c-.33-.28-.59-.61-.82-1.01-.42.05-.85.08-1.26.08-1.3,0-2.57-.26-3.87-.78.65.66,1.77,1.55,2.74,1.75.46.07.95.11,1.45.11.71,0,1.33-.07,1.76-.14ZM98.61,49.89h0s.12-.16.28-.29c.09-.07.19-.13.29-.17l.09-.04c.37-.16.75-.32.97-.49l.07-.05c.17-.12.32-.24.44-.47-.61-.03-1.15-.19-1.51-.32-3.75.82-7.32,2.23-8.46,2.7.25.24.31.55.17.95.17.01.32.06.45.15.62-.13,5.11-1.08,7.22-1.97ZM103.41,51.18c.45-.33,1.05-.77,1.56-1.44-1.3.54-2.31.65-3.68.67-.03,0-.07,0-.1,0-.99,0-1.68-.15-2.03-.25-.04.04-.06.07-.07.08-.02.03-.17.29.11.63.46.57,1.35.9,1.83.95.15.02.31.03.49.03.41,0,1.05-.07,1.89-.66ZM70.21,50.69c-.14-.32-.25-.64-.35-.96l-.02-.04c-.27-.78-.94-.99-1.01-1.01-3.19-.67-5.47-1.72-6.61-2.52.4.93.81,1.77,1.45,2.47.78.85,1.83,1.44,3.29,1.83h.01c.45.12.9.2,1.32.23.33.03.66.04.98.04.4,0,.72-.02.93-.04ZM89.97,50.46s.03,0,.05,0c.47-.21,4.17-1.79,8.34-2.79-.87-.36-1.68-.53-2.55-.53-.65,0-1.34.1-2.1.3-2.42.64-3.93,1.6-4.67,2.17.12.03.24.08.33.16.25.19.38.44.39.7.07-.01.14-.02.21-.02ZM101.34,49.8c.84,0,2.09-.09,3.25-.54,1.1-.43,1.68-1.6,1.9-2.13-1.61.86-3.11,1.11-5.11,1.24-.18.54-.48.77-.73.95l-.06.05c-.17.13-.39.25-.61.35.28.04.76.08,1.36.08h0ZM75.79,55.14c.72-.63,1.04-.81,1.97-1.21.57-.74,1.36-1.19,2.18-1.24-.95-.76-1.58-1.53-1.59-2.72,0-1.18-.69-2.4-1.33-2.85-1.01-.77-2.35-.83-4.22-.92-1.26-.06-2.69-.12-4.37-.42-.02,0-2.92-.59-3.73-.77-.02,0-2.15-.44-3.29-.79.15.51.6,1.03,1.32,1.56.09.06,2.22,1.5,6.1,2.31h0s.04,0,.04,0c0,0,.28.06.37.08,3.31.64,4,.83,4.06.85,1.02.29,1.85.66,2.16.97.15.13.31.34.32.35l.14.17-.64-.24c-.75-.28-1.34-.49-2.15-.69-.02,0-.58-.17-3.06-.65.12.17.22.36.29.57l.02.04c.12.36.25.74.42,1.1.62.02,2.57.18,4.28,1.17.23-.28.59-.34.86-.34.01,0,.03,0,.04,0-.01-.23.06-.45.21-.62.23-.26.57-.29.81-.29.05,0,.11,0,.15,0,.07-.11.23-.23.34-.3.15-.1.46-.17.47-.17l.17-.04-.22.28c-.29.41-.22.72-.22.72l.02.08-.3-.03c-.06,0-.13-.01-.21-.01-.28,0-.5.05-.57.14-.16.18-.03.44-.03.45l.22.44h-.11c-.08-.02-.16-.03-.24-.04-.17-.02-.35-.04-.51-.04-.24,0-.38.05-.44.15v.02c-.07.11-.14.26.4.78l.09.09-.13.02s-.79.1-1.17.24c-.1.04-.16.09-.17.15,0,.03,0,.16.27.31l.28.17s-.63.3-.64.71l1.31.48ZM69.85,46.76s0,0,0,0c.31,0,1.77.26,2.61.35.43.05,2.63.33,3.28.72.64.38.96,1.05,1.16,1.59l.11.29s-.09,0-.44-.37c-.24-.3-.59-.75-1.12-1.02-1.52-.73-4.01-.71-5.59-1.56ZM101,47.81s.1,0,.15,0c1.21-.05,3.6-.34,4.91-1.12,1.09-.58,1.41-1.42,1.69-2.17-.01,0-.05.02-.05.02-.29.12-.62.26-1.14.44l-.26.08c-.69.24-1.71.55-2.75.83-1.74.47-3.29,1.19-4.12,1.62.35.13.93.31,1.59.31h0ZM84.26,49.91c.42-.36.41-.65.37-.83-.22-.55-.64-.89-1.25-1.01l-2.79-.38s-.02.04-.03.05c.02.01.05.03.08.04.31.16.96.48,1.19,1.17.07.2.2.21.93.26h.22c.17.02.25.03.38.04.31.03.55.29.59.34.04.05.17.21.2.41l.09-.09ZM91.26,53.65s.09-.02.14-.03c-.32-.36-.71-.6-.71-.6l.22-.11c.17-.09.28-.19.3-.3.01-.05,0-.09-.03-.16-.08-.15-.23-.23-.45-.23-.09,0-.17.01-.23.02l-.51.08.2-.37c.34-.67.16-.8.07-.86-.12-.08-.25-.13-.38-.13-.15,0-.28.05-.38.09-.03.01-.06.02-.08.03l-.52.18s.19-.4.2-.43c.12-.26.14-.44-.07-.61-.09-.07-.18-.1-.29-.1s-.21.04-.32.11l-.48.33.02-.14c.09-.5-.41-1.2-.41-1.2,0,0,.28.03.67.23.02.01.04.02.06.03.69-.64,2.28-1.81,5.3-2.61.81-.22,1.55-.32,2.25-.32.99,0,1.92.2,2.93.64.57-.31,2.46-1.28,4.64-1.87,1.14-.31,2.25-.68,2.67-.83l.73-.26c.69-.27,1.54-.75,1.94-2l-8.74,2.93c-1.31.52-3.66.72-5.74.89-1.01.08-1.96.16-2.65.27-3.87.67-4.27,2.54-4.48,3.54-.01.06-.03.12-.04.18-.18.93-.55,1.66-1.11,2.18.13,0,.29,0,.36,0h0c.41,0,.7.12,1,.25.11.05.22.1.34.15.09.04.19.09.28.13.43.19,1.01.37,1.93.62l.07.02c.23.06.41.11.57.17.14.05.38.14.44.17.09-.01.21-.04.31-.07ZM84.46,47.91c.22-.11.24-.44.21-.54-.09-.31-.32-.55-.69-.7-.2-.07-.46-.1-.76-.1-.95,0-2.16.36-2.43.71l2.69.31c.14.02.5.1.87.36.04,0,.07-.02.11-.03ZM68.52,53.94c-.15-.15-.38-.24-.57-.25-.38-.03-.81.13-1.17.48.83.05.95.41,1.4.07l.35-.29M68.75,54.17l-.28.32c-.34.41,0,.54.03,1.31.33-.33.49-.73.47-1.09,0-.18-.08-.4-.22-.54M67.7,55.12l-.23.36c-.27.45.08.53.22,1.29.28-.38.38-.79.31-1.15-.03-.18-.14-.38-.3-.5M66.94,56.36l-.18.37c-.2.47.15.5.38,1.22.22-.4.26-.81.15-1.14-.06-.16-.19-.35-.35-.45M67.37,54.91c-.18-.1-.43-.12-.62-.08-.37.08-.74.35-1,.78.81-.18,1.03.13,1.36-.32l.25-.38M66.55,56.17c-.2-.07-.46-.04-.64.04-.36.15-.68.5-.84.98.77-.34,1.06-.07,1.3-.6l.18-.43M66.28,57.33c-.14.1-.24.28-.27.43-.07.31.01.67.25,1.01.14-.66.45-.72.22-1.13l-.2-.32M72.07,55.81l-.1.44c-.1.56.28.5.71,1.21.14-.48.08-.93-.12-1.26-.1-.16-.29-.33-.49-.39M71.76,55.72c-.19-.06-.42-.02-.58.06-.32.15-.6.48-.74.92.7-.33.97-.09,1.17-.58l.15-.4M71.41,57.09c-.18-.08-.41-.08-.58-.03-.34.1-.67.38-.87.8.74-.23.97.05,1.25-.4l.21-.37M70.67,58.33c-.16-.1-.39-.13-.56-.1-.34.06-.69.29-.94.66.74-.13.93.17,1.26-.23l.25-.33M71.73,57.25l-.22.4c-.25.51.13.56.35,1.36.26-.42.33-.88.23-1.25-.05-.18-.18-.4-.36-.51M70.97,58.52l-.3.36c-.35.46.02.59.08,1.43.35-.37.51-.81.48-1.2-.01-.19-.1-.43-.26-.58M70.11,59.37l-.37-.03c-.46-.02-.37.29-.9.71.4.05.77-.05,1.01-.25.12-.1.23-.27.26-.44M84.72,55.84c.08.76.15,1.42-.17,2.01h0c-.06.14-.15.36-.2.45-.9-.15-1.89-.17-2.17-.17-.17,0-.32,0-.43.01-.43.03-.82.08-1.15.17.04-.14.12-.35.24-.52l.07-.1h-.13c-.06,0-.12.01-.18.01-.5,0-.79-.12-1.02-.42-.15-.22-.2-.48-.11-.72.07-.2.23-.41.39-.6.13-.17.42-.63.51-.83.06-.12.12-.25.18-.39.12.17.31.28.57.34.15.04.28.05.42.05.25,0,.51-.06.84-.2-.44.39-1.67.64-1.67.64-.03.03-.01.09.03.1.01,0,.02,0,.03,0,.16.04.32.06.48.06.52,0,.99-.2,1.5-.45.83-.44,1.85-1.83,1.89-1.89.06-.09.15-.15.23-.2-.36.65-.29,1.35-.21,2.1.02.17.04.35.05.53ZM83.99,56.66c-.21.38-.42.72-1.17.75-.93.04-1.16-.62-1.16-.62.06.29.27,1.14,1.16,1.1,1.13-.05,1.16-1.24,1.16-1.24ZM85.24,56.87l.06-.07c.07-.09.12-.18.13-.2.33-.62.39-1.1.41-1.31v-.03s.05-.39.2-.39c.96,0,2.13.19,3.04.37.24.05.49.1.73.14.31.08.66.11,1.02.11.51,0,1.07-.08,1.65-.23l2.37-.69c.1-.02.19-.04.29-.07.34-.08.67-.16,1.05-.16.11,0,.3.03.4.03.83,0,1.79-.41,2.08-.63.3-.23.35-.43.39-.66.02-.11.01-.17-.02-.21-.02-.02-.04-.03-.07-.03-.07,0-.19.05-.35.11-.22.08-1.24.37-1.45.38.04-.07.19-.22.34-.33.19-.15.37-.28.4-.54,0-.05-.03-.07-.07-.07-.02,0-.05.02-.06.02-.08.04-.15.1-.22.15-.17.13-.35.26-.59.26,0,0-.01,0-.02,0s0,0,0,0c-.26.03-.41.18-.56.33-.17.17-.34.34-.66.39l-3.39.45c-.26.03-.51.09-.75.14-.23.05-.48.11-.72.14h0c-.48-.19-1.01-.34-1.54-.48-.72-.2-1.39-.39-1.88-.66-.07-.04-.69-.36-1.31-.36-.15,0-.28.02-.4.06h0s0,0,0,0c-.07.05-.73.51-.64,1.8.03.52.07.89.11,1.19.02.17.03.32.05.46,0,.03.02.3.01.51v.09ZM80.31,53.17s-.06,0-.09,0c-.75,0-1.45.4-2.08,1.19h0c-.81.34-1.43.76-2.17,1.32-.11-.01-.99-.34-1.84-.66-.52-.19-1.05-.39-1.46-.54,0,0,0,0,0,0h0c-.58-.4-1.27-.65-1.71-.71-.08-.01-.17-.02-.28-.02-.46,0-1.02.1-1.2.18-.03,0-.07.03-.07.08,0,.03,0,.05.02.07.02.03.06.04.12.04s.16-.01.26-.03c.14-.02.32-.05.5-.05.51,0,.81.2.94.64-.18.03-.25.09-.32.15-.07.06-.14.12-.38.16h-.06s0,.01,0,.01c-.04.01-.07.04-.07.07,0,.04.03.08.04.09.06.04.14.07.24.07s.22-.03.31-.07c.1-.05.21-.06.33-.07.17-.02.36-.07.57-.18.62.26,1.22.66,1.79,1.17.38.35.82.75,1.67,1.19.06.02.13.05.22.05.14,0,.3-.06.49-.18.52-.31,3.22-1.87,3.49-2h0s0,0,0,0c.33-.31.51-.97.53-1.04.01-.04.03-.1.04-.15.07-.23.15-.55.17-.72v-.03s-.03,0-.03,0ZM86.01,49.01c-.2.2-.39.26-.54.26-.16,0-.31-.04-.44-.09,0,.07.01.15.04.21.06.15.21.25.36.25.33,0,.58-.3.58-.62ZM84.97,48.63c.26.17.49.21.69.13.25-.11.36-.41.36-.44.03-.23-.06-.27-.2-.31-.12-.04-.27-.09-.27-.3,0-.08-.02-.13-.07-.15-.07-.05-.2-.01-.27.02-.04.46-.28.68-.46.78l.22.29ZM82.33,46.27s-.32-.14-.67-.17c-.42-.04-.71.05-.87.13-.26.13-.39.46-.25.66.4-.33,1.06-.52,1.79-.62ZM84.93,52.51c-.15-.05-.23-.07-.36-.13-.95-.38-.59-1.31-.72-2.05-.02-.15-.06-.3-.25-.24-.09.02-.43.4-.97.2.21-.07.4-.13.53-.23.18-.14.24-.32.15-.44-.05-.09-.18-.11-.28-.08-.09.03-.19.18-.16.32,0,0-.22.03-.45-.19-.09-.09-.26-.12-.44-.11-.26.02-.43-.05-.53-.34-.12-.49-.64-.89-1.05-1.11-.11.27-.21.46-.2.79.03.22.42.18.57.21.41.1-.26.39-.26.59-.04-.06-.07-.18-.01-.24.1-.14-.11-.13-.17-.2-.01.39-.32.94-.29,1.07,0,.03.35.06.35.06.09.08.03.24.04.36,0,0,0,.01.02.01.02,0,.15.02.18.03.03,0,.06.03.06.06,0,.03-.03.06-.06.06,0,0-.05,0-.1,0,.02.1.02.21.16.27.07.1-.03.38.15.43.52.12,1.19-.46,1.74-.85-.09.33-.55.68-.66,1.01,0,0-.02.53-.13.87-.14.41-.58.33-.91.5,0,.03,0,.05-.01.09,0,.05-.02.1-.02.16v.03s0,0,0,0c0,.01,0,.03,0,.05-.02.22-.09.79.28,1,.12.06.26.09.42.09h0c.37,0,.84-.16,1.34-.47.54-.33.82-.58,1.12-.84.26-.23.52-.46.96-.74ZM92.83,55.75c.59.95,1.51.93,2.14.75-.72-.24-.98-.37-1.52-.92,0,0-.34.11-.62.17ZM79.96,58.26c-.2-.06-.31-.11-.49-.23-.55-.37-.88-1.17-.48-1.86,0-.02.03-.06.1-.17-.3.19-2.92,1.72-2.92,1.72,0,0,.01.19.27.29.53.17,1.18.02,1.54-.05-.25.27-.56.82-.4,1.44.53-.13.78-.22,1.18-.82-.01.56-.05,1.48.44,1.93.08-.25.37-1.15.75-2.25ZM94.01,55.42c.27.27.67.64,1.61.79.5.08,1.32-.03,1.66-.12-.93-.22-1.45-.64-1.96-1.07-.16.04-.78.2-1.31.39ZM96.06,54.86c.38.31.85.69,1.65.9.94.23,2.2-.33,2.28-.4-.83-.04-1.45-.33-2.09-.74-.79.4-1.53.12-1.83.24ZM98.5,54.3c.42.23.75.36,1.14.46,1.03.31,1.67-.44,1.97-.87.01-.02.01-.05-.02-.05-1.34,0-1.44-.12-1.97-.35-.08.18-.34.6-1.12.81Z"/>
    <g id="Script">
      <path class="cls-2" d="M82.31,88.08c10.45,0,12.25,8.4,22.97,8.4,6.49,0,6.62-2.76,6.62-2.76l-1.1-5.64c1.42-1.7,7.24-1.5,7.24-1.5l-5.04-6.54c-4.69.3-8.54,1.51-8.54,3.54v6.06c-6.32,0-10.54-8.37-22.15-8.37h0c-11.61,0-15.83,8.37-22.15,8.37v-6.06c0-2.03-3.86-3.24-8.54-3.54l-5.04,6.54s5.82-.2,7.24,1.5l-1.1,5.64s.12,2.76,6.62,2.76c10.72,0,12.52-8.4,22.97-8.4h0Z"/>
      <path class="cls-5" d="M107.33,86.14c2.49.69,2.73,1.13,2.79,1.39.05.26-.01.5-.19.73-.63.81-2.55,1.35-4.9,1.4v-4.67c.46.48,1.22.86,2.3,1.15ZM105.03,83.57c0,1.14,1.2,1.67,2.45,2.02,2.39.66,3.02,1.15,3.2,1.83,1.12-.86,3.09-1.23,6.19-1.35l-4.21-5.47c-1.56.16-3.28.39-4.49.76-1.87.56-3.15,1.36-3.15,2.21ZM110.33,88.65c-.92,1.1-3.33,1.53-5.31,1.57h0s-.57,0-.57,0c-2.85,0-5.22-1.55-7.95-3.34-3.5-2.29-7.45-4.87-13.63-5.02h-1.14c-6.18.15-10.13,2.73-13.63,5.02-2.74,1.79-5.1,3.34-7.95,3.34h-.57c-1.97-.04-4.38-.46-5.31-1.57l-.99,5.08c.08.33.78,2.18,6.04,2.18s8.19-2.01,11.33-4.14c2.98-2.02,6.05-4.1,11.08-4.25h1.14c5.03.15,8.1,2.23,11.08,4.25,3.14,2.13,6.11,4.14,11.33,4.14s5.96-1.85,6.04-2.18l-.99-5.08ZM57.29,86.14c-2.49.69-2.73,1.13-2.79,1.39-.05.26.01.5.19.73.63.81,2.55,1.35,4.9,1.4v-4.67c-.46.48-1.22.86-2.3,1.15ZM56.44,81.36c-1.21-.36-2.93-.6-4.49-.76l-4.21,5.47c3.1.12,5.07.49,6.19,1.35.18-.68.81-1.17,3.2-1.83,1.26-.35,2.45-.87,2.45-2.02,0-.86-1.27-1.65-3.15-2.21Z"/>
      <path class="cls-2" d="M109.67,93.38s.14.64.12.68c0,0-.08.03-.11.01-.02-.05-.04-.07-.17-.04,0,0-1.98.44-2.02.42,0,0-.02-.08,0-.11.14-.05.14-.08.12-.15l-.55-2.45c-.01-.07-.03-.09-.22-.1,0,0-.02-.08,0-.11l1.92-.43c.13-.03.14-.05.16-.14,0,0,.07-.03.11,0,0,0,.15.66.13.69,0,0-.08.02-.11,0-.02-.04-.04-.06-.17-.03,0,0-1.16.26-1.16.23,0,0,.13.59.13.68,0,0,0,.01,0,.01,0,0,.7-.15.7-.15.13-.03.14-.04.16-.13,0,0,.09-.03.11-.02,0,0,.16.66.14.69,0,0-.09.03-.11.02-.02-.04-.05-.07-.18-.05,0,0-.62.14-.68.15.02.08.14.64.14.73,0,0,0,0,0,0,0,0,1.26-.28,1.26-.28.13-.03.14-.04.16-.13,0,0,.08-.04.11-.02h0ZM97.48,91.73s.07.03.08.07c0,0-.4.6-.44.61,0,0-.07-.03-.08-.07.02-.05.02-.09-.09-.16,0,0-1.64-1.07-1.65-1.12,0,0,.04-.07.08-.08.11.05.14.04.17-.02l1.37-2.1c.04-.06.05-.09-.06-.22,0,0,.04-.07.08-.08,0,0,.78.51.79.55,0,0-.03.07-.07.08-.14-.07-.17-.06-.21,0,0,0-1.21,1.85-1.25,1.85,0,0,1.03.68,1.03.68.11.07.13.07.23,0M77.57,86.58s-.04.07-.07.08c-.03-.02-.06-.03-.08-.02-.16.12-.22.48-.87.68-.78.24-1.5-.19-1.76-1.05-.32-1.04.24-1.72.93-1.93.58-.16.82.09.9,0,.06-.06.08-.11.12-.1h.07s-.02.09-.02.09c0,0-.16.76-.19.78h-.07s-.01-.1-.08-.17c-.11-.11-.35-.15-.55-.09-.24.07-.79.28-.5,1.24.16.45.47.86,1.06.7.17-.05.33-.18.41-.32,0,0,.07-.15-.01-.33,0,0,.04-.06.07-.06l.66.5ZM60.13,91.94c-.24-.25-.56-.38-.94-.39-.38,0-.71.11-.96.35-.29.27-.45.68-.46,1.16-.02.92.52,1.56,1.34,1.58.38,0,.71-.11.96-.35.29-.27.45-.69.46-1.16.01-.48-.13-.9-.41-1.18ZM59.91,93.11c0,.37-.1.65-.28.81-.13.12-.3.18-.5.18-.49-.01-.75-.38-.73-1.03,0-.37.11-.65.28-.82.13-.12.3-.18.5-.18.2,0,.37.07.49.2.16.17.25.46.24.83ZM105.34,91.69h-1.23s-.03.1-.03.1c.12.04.14.07.13.15,0,0,0,2.51,0,2.51,0,.08-.01.1-.11.12l-.03.11s1.16.04,1.16.04c.49,0,.87-.12,1.12-.38.26-.25.39-.63.39-1.13,0-.94-.51-1.51-1.39-1.52ZM106.1,93.21c0,.74-.24.97-.98.97,0,0-.32,0-.33,0h0s.04-1.79.04-1.95c.05,0,.29,0,.29,0,.74,0,.98.24.98.97h0ZM85.63,83.49s.25.14.28.16.08-.01.11-.04l.09.07s-.51.66-.55.66c0,0-.07-.04-.09-.07,0,0,.01-.08.02-.1.03-.14-.25-.34-.66-.39-.15-.02-.28,0-.36.07s-.1.13-.11.2c-.02.23.27.33.61.46.5.18,1.12.4,1.03,1.11-.03.23-.15.43-.34.58-.19.15-.54.32-1.12.23,0,0-.57-.1-.99-.38,0,0-.01-.01-.12.06l-.08-.06.02-.02s.43-.67.47-.68l.08.04v.07c-.03.22.48.39.72.42.28.03.48,0,.6-.08.05-.05.11-.13.13-.25.03-.25-.28-.36-.65-.49-.48-.17-1.07-.38-1-1.02.05-.41.41-.86,1.23-.76.26.03.49.1.68.21M90.57,84.97s-.07.09-.07.09c.1.09.09.1.08.11l-.16.19s-1.74,1.76-1.74,1.76c0,0-.05.05-.1.06-.03,0-.07,0-.11.01l-.04.09.78.36.04-.09s-.02-.02-.04-.04c-.01-.02-.01-.04,0-.06,0-.02.04-.06.04-.06,0,0,.34-.37.36-.39.02.02.9.42.9.42,0,.04-.06.52-.06.52,0,0-.01.05-.02.07,0,.02-.03.03-.05.03-.02,0-.04,0-.05,0l-.04.09.78.36.04-.09s-.05-.06-.06-.09c-.03-.04-.02-.11-.02-.11,0,0,.21-2.47.21-2.47l.03-.23s.02-.05.11-.02c.04-.02.07-.09.07-.09-.02-.04-.87-.42-.87-.42ZM90.56,86.96s-.56-.26-.65-.3c.05-.05.7-.78.79-.87,0,0-.14,1.14-.14,1.17ZM99.69,90.25s-.07.09-.07.09c.09.09.08.11.08.11l-.17.18s-1.8,1.7-1.8,1.7c0,0-.05.05-.1.05-.03,0-.07,0-.11,0l-.05.09.76.39.05-.09s-.02-.02-.04-.04c-.01-.02-.01-.04,0-.06.01-.02.05-.06.05-.06,0,0,.35-.35.37-.38.02.02.88.45.89.45,0,.04-.08.52-.08.52,0,0-.01.05-.02.07-.01.02-.03.03-.05.03-.02,0-.04,0-.05,0l-.05.09.76.39.05-.09s-.04-.06-.06-.09c-.03-.04-.02-.11-.02-.11,0,0,.3-2.46.3-2.46l.04-.23s.03-.05.11-.02c.04-.01.07-.09.07-.09-.01-.04-.86-.45-.86-.45ZM99.61,92.23s-.55-.28-.64-.32c.05-.05.73-.75.82-.84,0,0-.18,1.13-.18,1.16ZM83.16,85.56s.02.66,0,.69c0,0-.08.02-.11,0-.01-.06-.03-.07-.16-.07,0,0-2.03.07-2.06.04,0,0,0-.08.02-.11.14-.02.15-.05.15-.12l-.08-2.51c0-.07,0-.1-.2-.14,0,0,0-.08.03-.11l1.97-.06c.13,0,.15-.03.18-.11,0,0,.08-.01.11.02,0,0,.03.68,0,.71,0,0-.08,0-.11-.02-.01-.05-.03-.06-.16-.06,0,0-1.18.04-1.18,0,0,0,.02.6,0,.69,0,0,0,.01,0,.01,0,0,.72-.02.72-.02.13,0,.14-.01.18-.1,0,0,.09-.02.11,0,0,0,.04.68,0,.71,0,0-.09.01-.12,0-.01-.05-.04-.08-.17-.08,0,0-.63.02-.69.02,0,.08.02.66,0,.74,0,0,0,0,0,0,0,0,1.29-.04,1.29-.04.13,0,.15-.02.18-.1,0,0,.08-.02.12,0h0ZM62.4,91.3s.27.06.31.06.07-.03.09-.08l.11.04s-.27.76-.31.78c0,0-.08-.02-.11-.04,0,0-.01-.08-.01-.09-.02-.14-.33-.24-.73-.16-.15.03-.25.09-.31.17s-.06.15-.04.22c.05.22.35.23.71.23.51.01,1.16.02,1.29.71.04.22,0,.45-.13.64-.13.2-.4.46-.96.56,0,0-.56.08-1.03-.05,0,0-.02,0-.09.1l-.09-.03v-.03s.2-.75.24-.77l.08.02.02.07c.04.21.57.21.8.16.27-.05.45-.14.53-.26.04-.06.06-.16.04-.27-.04-.24-.37-.25-.75-.26-.5-.01-1.11-.02-1.23-.63-.08-.4.11-.92.9-1.08.25-.05.48-.05.69-.02M68.87,90.7s.36.55.35.59c0,0-.06.06-.1.05-.04-.04-.06-.05-.18.02,0,0-1.7,1.11-1.74,1.1,0,0-.05-.07-.04-.1.11-.09.1-.12.06-.18l-1.37-2.11c-.04-.06-.06-.08-.24-.02,0,0-.04-.07-.03-.11l1.65-1.08c.11-.07.11-.1.1-.19,0,0,.06-.05.1-.04,0,0,.37.56.36.61,0,0-.07.05-.1.04-.04-.03-.06-.04-.17.03,0,0-.99.65-1.01.62,0,0,.33.5.36.59,0,0,0,.01,0,.01,0,0,.6-.39.6-.39.11-.07.11-.09.1-.17,0,0,.07-.06.1-.06,0,0,.38.56.37.6,0,0-.07.06-.1.06-.03-.03-.08-.05-.19.02,0,0-.53.34-.58.38.05.07.36.55.39.63,0,0,0,0,0,0,0,0,1.08-.7,1.08-.7.11-.07.12-.09.11-.18,0,0,.06-.06.1-.06h0ZM71.34,86.38s.03.11.03.11c.13-.02.14,0,.14,0l.05.24s.35,2.45.35,2.45c0,0,0,.07-.01.11-.02.03-.03.06-.06.09l.05.09.76-.4-.05-.09s-.03,0-.05,0c-.02,0-.04-.01-.05-.03-.01-.02-.02-.07-.02-.07,0,0-.08-.49-.09-.52.03,0,.88-.46.88-.46.03.03.37.36.37.36,0,0,.04.04.05.06.01.02.01.04,0,.06-.01.02-.02.03-.03.04l.05.09.76-.4-.05-.09s-.08,0-.11,0c-.05,0-.1-.05-.1-.05,0,0-1.83-1.67-1.83-1.67l-.16-.16s-.03-.05.05-.1c.01-.04-.03-.11-.03-.11-.04-.01-.86.44-.86.44ZM72.92,87.59s-.54.28-.63.33c-.01-.07-.19-1.03-.21-1.16,0,0,.82.8.85.82ZM88.61,86.94s-.07.04-.1.02c-.02-.03-.03-.06-.06-.06-.2,0-.45.28-1.1.08-.78-.23-1.15-.99-.9-1.84.31-1.04,1.14-1.3,1.83-1.1.58.19.64.52.74.5.08-.02.13-.04.16-.02l.05.04-.06.06s-.55.54-.59.54l-.05-.04s.04-.08.02-.18c-.03-.15-.21-.32-.41-.38-.25-.07-.81-.2-1.1.76-.12.47-.08.97.5,1.17.17.05.38.03.52-.04,0,0,.15-.09.17-.28,0,0,.06-.03.09-.01l.28.79ZM56.77,91.18l-1.34-.26s-.03.1-.03.1c.13.07.13.1.12.17l-.48,2.47c-.01.07-.04.1-.15.09-.03.03-.04.12-.04.12,0,0,.9.18.9.18l.02-.1c-.1-.06-.12-.08-.12-.13,0-.01,0-.02,0-.04,0,0,.19-.97.19-.98,0,.03.59.14.59.14.76.15,1.12-.26,1.2-.68.08-.43-.1-.93-.86-1.08ZM56.43,92.39s-.49-.09-.49-.1c.03-.09.12-.63.14-.71.05.01.49.1.49.1.36.08.5.2.45.46s-.21.33-.59.25ZM71.62,89.46c-.11.02-.15,0-.33-.1l-.86-.48c.34-.37.29-.79.1-1.08-.24-.36-.72-.6-1.37-.18l-1.15.74s.05.09.05.09c.14-.03.16-.02.2.04l1.37,2.11c.04.06.05.1-.04.17,0,.04.05.11.05.11.01,0,.77-.5.77-.5l-.07-.11c-.11.03-.15.02-.18-.01,0,0-.02-.02-.02-.03,0,0-.52-.79-.52-.8,0,0,.16-.1.3-.19.14.1,1,.58,1.01.59.03.02-.04.08-.05.09,0,.02.06.11.06.11.02,0,.74-.47.74-.47-.01-.04-.07-.11-.07-.11ZM68.95,88.38s.42-.27.42-.27c.32-.2.49-.21.64.02s.08.38-.24.59c0,0-.42.27-.42.27-.04-.08-.35-.54-.4-.61ZM80.4,86.2c-.11-.02-.14-.06-.26-.22l-.61-.78c.46-.21.57-.61.51-.96-.08-.43-.43-.83-1.2-.69l-1.34.24s.01.11.01.11c.14.02.16.05.17.12l.45,2.47c.01.07,0,.11-.1.14-.02.04,0,.13,0,.13.01,0,.9-.16.9-.16l-.02-.12c-.11-.02-.14-.03-.16-.08,0-.01,0-.02,0-.04,0,0-.17-.93-.17-.94,0,0,.19-.03.35-.06.1.14.69.92.7.93.02.02-.06.06-.08.06-.01.01.02.13.02.13.01.01.86-.15.86-.15,0-.04-.02-.12-.02-.12ZM78.35,84.18c.05,0,.49-.09.49-.09.37-.06.54,0,.58.27s-.08.38-.45.45c0,0-.49.09-.49.09,0-.09-.12-.63-.13-.72ZM65.65,93.02c.03.07.05.09.18.07l.05.1h-.03s-.69.33-.76.36c0,0-.05-.09-.04-.11.02-.01.06-.06.05-.08,0-.02,0-.04-.02-.07,0,0-.89-1.92-.93-2.03h0s-.61.29-.61.29c-.1.05-.12.07-.12.15,0,.01,0,.03,0,.05,0,0-.07.05-.1.04,0,0-.31-.66-.29-.7,0,0,.06-.04.1-.03.03.05.06.06.18,0l1.74-.79c.11-.06.14-.06.14-.16,0,0,.05-.04.09-.05,0,0,.33.67.31.71,0,0-.07.05-.1.04-.05-.07-.08-.12-.19-.06,0,0-.54.26-.57.26.01,0,.92,2.01.92,2.01M101.67,94.32c-.75-.21-1.03-.69-.83-1.41l.44-1.6c.02-.07-.02-.13-.11-.18,0-.04.03-.11.03-.11,0,0,.61.16.88.25,0,0-.02.09-.05.11-.1-.01-.12.02-.14.1l-.44,1.61c-.05.18-.04.34.03.47.07.12.18.2.34.25h0c.16.04.31.03.42-.04.13-.07.22-.2.27-.38l.46-1.6c.02-.07.02-.11-.07-.16-.02-.04.01-.12.01-.12.27.07.88.25.88.25,0,0-.01.08-.04.11-.1-.01-.17.02-.19.09l-.46,1.59c-.21.72-.7.98-1.45.77h0ZM92.52,89.42s-.03-.02-.04-.03c0,0,.36-1.96.46-2.28,0-.02,0-.04.01-.06-.13.2-1.08,1.7-1.08,1.7,0,.01-.02.03-.02.05,0,.03.02.06.07.12l-.06.09s-.65-.41-.7-.45c0,0,.04-.08.07-.08.05.03.12,0,.15-.04l1.38-2.17s.03-.07-.04-.16c0,0,.03-.08.07-.09,0,0,.88.55.88.56,0,0-.04.07-.07.08-.06-.01-.09.03-.1.04-.03.05-.34,1.7-.35,1.71h0s1.37-.99,1.4-1.04c0-.01.03-.06,0-.11,0-.03.04-.1.04-.1,0,0,.88.56.88.56.01.04-.05.1-.05.1-.1-.02-.13,0-.16.03l-1.38,2.18s-.03.12.02.15c0,.02-.05.09-.05.09-.05-.02-.7-.44-.7-.44l.06-.09c.08.02.12.02.14.01.02,0,.03-.02.03-.04,0,0,.95-1.49,1.08-1.7-.01.01-.03.02-.05.03-.25.23-1.87,1.39-1.87,1.39-.02,0-.03-.02-.05-.03h0Z"/>
    </g>
    <path class="cls-5" id="Wordmark" d="M39.36,113.42h87.23v.5H39.36v-.5ZM50.26,102.27h-.24s-.83-.02-.83-.02c-.05,0-.2,0-.2.13,0,.07.06.11.13.11l.27.02c.22.05.29.14.31.42l.02,1.78v.17l-3.49-.02v-.16s.03-1.78.03-1.78c.02-.28.08-.38.26-.41,0,0,.19-.02.19-.02.07,0,.13-.05.13-.11,0-.09-.07-.13-.2-.13l-.67.02h-.24s-.82-.02-.82-.02c-.13,0-.19.04-.19.13,0,.06.06.11.13.11l.27.02c.23.05.29.14.31.41,0,0,.02,1.78.02,1.78v1.45c0,.77,0,1.44-.04,1.78-.03.25-.07.38-.19.4,0,0-.24.03-.24.03-.09,0-.13.06-.13.11,0,.13.15.13.19.13l.67-.02h.23s.92.02.92.02c.17,0,.19-.09.19-.13,0-.06-.04-.11-.13-.11l-.37-.03c-.19-.03-.24-.16-.27-.4-.04-.34-.04-1.01-.04-1.78v-.87h3.49s-.02.87-.02.87c0,.77,0,1.44-.04,1.78-.03.24-.07.38-.19.4,0,0-.23.03-.23.03-.09,0-.13.06-.13.11,0,.13.15.13.19.13l.68-.02h.23s.92.02.92.02c.18,0,.2-.09.2-.13,0-.05-.04-.11-.13-.11l-.36-.03c-.2-.03-.24-.16-.27-.4-.04-.34-.04-1.01-.04-1.78v-1.45l.02-1.78c.02-.28.08-.38.25-.41l.19-.02c.08,0,.13-.05.13-.11,0-.13-.15-.13-.19-.13l-.68.02ZM55.56,102.23c-.17.03-.34.04-.34.04,0,0-1.89,0-1.89,0h-.11s-.82-.03-.82-.03c-.05,0-.2,0-.2.13,0,.07.05.11.13.11l.27.02c.21.02.29.14.31.42l.02,1.78v1.45c0,.77,0,1.44-.04,1.78-.03.25-.07.38-.19.4-.03,0-.24.03-.24.03-.1,0-.13.06-.13.11,0,.13.14.13.19.13l.67-.02h.45s1.73.04,1.73.04c.33,0,.44,0,.51-.26.04-.17.11-.74.11-.82,0-.06,0-.19-.11-.19-.1,0-.12.11-.13.18-.05.32-.15.47-.33.55-.2.09-.56.09-.77.09-.8,0-.87-.1-.89-.62v-1.04s0-.36,0-.36v-.73s1.17.05,1.17.05c.28.03.36.15.37.24s.03.26.03.26c0,.09.05.14.12.14.12,0,.12-.15.12-.22l.03-.52.07-.47c0-.12-.08-.13-.1-.13-.04,0-.11.08-.17.12-.13.08-.13.08-.35.1l-1.31.02v-2.3c.11-.02.99-.01,1.12,0,.45.05.5.15.54.24,0,0,.04.27.04.27,0,.15.09.17.13.17.04,0,.1-.03.12-.14,0,0,.03-.42.03-.42v-.13s.06-.28.06-.28l.02-.11c0-.13-.07-.14-.1-.14s-.06.03-.13.04ZM66.73,102.61v4.73c0,.74-.07.96-.21.99s-.32.05-.32.05c-.1,0-.13.06-.13.11,0,.13.14.13.19.13l.66-.02h.26s.75.02.75.02c.06,0,.21,0,.21-.13,0-.05-.02-.1-.13-.11,0,0-.24-.02-.4-.05s-.26-.2-.27-.9c0,0-.09-3.47-.1-3.78.2.23,2.04,2.24,2.04,2.24.9.97,2.07,2.16,2.16,2.24.47.47.55.54.65.54.13,0,.14-.1.14-.65,0,0,.01-4.84.01-4.84,0-.52.04-.63.26-.68,0,0,.19-.02.19-.02.11-.01.15-.06.15-.12,0-.12-.14-.12-.21-.12l-.55.02h-.32s-.68-.02-.68-.02c-.08,0-.23,0-.23.12,0,.08.03.12.13.12l.39.04c.2.03.26.16.27.72,0,0,.07,3.25.09,4.03-.16-.17-.62-.67-.62-.67l-1.25-1.37-2.7-2.91c-.12-.13-.19-.21-.26-.21-.14,0-.15.19-.15.48M74.84,102.27h-.26l-.71-.02s-.19,0-.19.13c0,.06.04.11.13.11l.24.03c.13.02.21.11.23.41,0,0,.02,1.78.02,1.78v1.45c0,.77,0,1.44-.04,1.78-.04.25-.07.38-.19.4,0,0-.24.03-.24.03-.11,0-.13.06-.13.11,0,.13.15.13.2.13l.68-.02h.23s.92.02.92.02c.18,0,.19-.09.19-.13,0-.05-.03-.11-.13-.11l-.36-.03c-.2-.03-.24-.16-.27-.4-.04-.34-.04-1.01-.04-1.78v-1.45l.02-1.78c.02-.28.08-.38.25-.41,0,0,.19-.02.19-.02.08,0,.13-.05.13-.11,0-.13-.15-.13-.2-.13l-.67.02ZM82.44,102.27h-.31l-.62-.02c-.08,0-.24,0-.24.13,0,.04.02.1.15.11l.29.03c.06.01.08.08.07.13l-.07.29c-.17.55-1.19,3.22-1.7,4.43-.1-.28-1.53-4.08-1.53-4.08-.12-.31-.22-.57-.22-.66,0-.04,0-.1.07-.11l.29-.03c.14-.01.15-.09.15-.12,0-.12-.18-.12-.29-.12l-.6.02h-.37l-.76-.02c-.12,0-.28,0-.28.12,0,.07.04.11.13.12l.3.03c.25.04.37.15.55.6l2.04,5.11c.15.39.2.5.34.5.1,0,.14-.08.26-.35l.14-.31,1.02-2.39.49-1.18.48-1.17c.22-.55.33-.68.43-.75.14-.09.31-.09.36-.09.14,0,.16-.08.16-.12,0-.08-.07-.12-.2-.12l-.52.02ZM95.03,103.69c0,.56.19,1.09,1.1,1.84l.37.31c.73.6.93.91.93,1.44s-.38,1.03-1.12,1.03c-.3,0-1.02-.08-1.16-.79l-.02-.29s0-.15-.12-.15c-.11,0-.12.12-.13.19,0,0,0,.08,0,.08l-.04.8c0,.22,0,.29.16.37.32.16.69.23,1.14.23.5,0,.95-.12,1.28-.36.54-.38.73-.98.73-1.42,0-.65-.2-1.18-1.23-1.99l-.23-.18c-.79-.65-.98-.91-.98-1.34,0-.54.38-.9.95-.9.68,0,.91.28.98.41.04.08.09.3.1.39,0,.06.02.17.13.17.12,0,.12-.17.12-.25l.03-.81v-.06c0-.11-.1-.12-.14-.12s-.28-.04-.28-.04c-.24-.06-.48-.09-.78-.09-1.06,0-1.77.62-1.77,1.55M112.73,102.27h-.35s-.41-.02-.41-.02c-.17,0-.2.07-.2.11,0,.09.08.11.16.14.04.02.1.03.1.17,0,.12-.04.25-.13.39-.14.23-1.07,1.83-1.32,2.33-.27-.46-1.34-2.29-1.46-2.51-.06-.12-.1-.21-.1-.29,0-.04.02-.07.07-.09,0,0,.04-.02.04-.02.05-.02.12-.04.12-.11,0-.08-.06-.12-.17-.12l-.58.02h-.31s-.62-.02-.62-.02c-.16,0-.17.1-.17.12,0,.07.06.12.15.12.06,0,.2.04.32.12.16.11.37.33.54.59.3.44,1.4,2.25,1.45,2.37.11.24.18.41.18.84v.71l-.03.82c-.01.16-.06.37-.21.4,0,0-.23.03-.23.03-.11.01-.13.06-.13.11,0,.13.15.13.19.13l.68-.02h.23s.92.02.92.02c.17,0,.19-.09.19-.13,0-.06-.04-.11-.13-.11l-.36-.03c-.18-.03-.27-.14-.28-.4l-.02-.82v-.71c0-.26,0-.52.12-.8.14-.34,1.29-2.27,1.57-2.61.18-.23.27-.32.42-.41.11-.07.26-.11.35-.11.13,0,.17-.07.17-.13,0-.05-.04-.11-.17-.11l-.58.02ZM115.77,105.43c0-1.27.9-3.29,3.32-3.29,1.98,0,3.31,1.27,3.31,3.16,0,1.99-1.41,3.44-3.36,3.44-2.24,0-3.27-1.72-3.27-3.31M116.68,105.2c0,1.82,1.06,3.1,2.58,3.1.37,0,2.22-.13,2.22-2.77,0-2.05-1.27-2.98-2.45-2.98-1.45,0-2.35,1.02-2.35,2.65M126.4,102.27s-.1,0-.1,0c0,0-2.03,0-2.03,0h-.11s-.82-.02-.82-.02c-.05,0-.2,0-.2.13,0,.06.04.11.13.11l.27.02c.22.03.29.14.31.41,0,0,.02,1.78.02,1.78v1.45c0,.77,0,1.44-.04,1.78-.03.25-.07.38-.19.4,0,0-.23.03-.23.03-.11.01-.13.06-.13.11,0,.13.15.13.19.13l.67-.02h.23s.92.02.92.02c.18,0,.19-.09.19-.13,0-.06-.03-.11-.13-.11l-.36-.03c-.2-.03-.24-.16-.27-.4-.04-.34-.04-1.01-.04-1.78v-.7c.31-.01,1.05,0,1.23.01.22.03.35.16.38.26s.04.21.04.28.05.13.12.13c.12,0,.12-.14.12-.22l.03-.55.07-.47c.01-.12-.08-.13-.1-.13-.06,0-.1.05-.13.09-.07.1-.14.13-.35.14h-.37s-1.06.02-1.06.02v-2.29s1.28,0,1.28,0c.3,0,.48.12.51.23.02.08.07.29.07.29.03.16.1.16.12.16.04,0,.11-.01.13-.14,0,0,.03-.45.04-.55,0-.05.05-.28.05-.28l.02-.11c.01-.09-.05-.14-.11-.14-.07,0-.25.07-.39.08ZM65.06,102.27h-.26s-.76-.02-.76-.02c-.05,0-.19,0-.19.13,0,.06.06.11.13.11l.27.02c.24.03.29.15.31.41,0,0,.02,1.78.02,1.78v1.03c0,.99-.14,1.58-.46,1.98-.29.35-.77.57-1.25.57s-.82-.07-1.2-.44c-.3-.28-.6-.74-.6-1.99v-1.16l.02-1.78c.02-.29.08-.39.25-.41,0,0,.2-.02.2-.02.08,0,.13-.05.13-.11,0-.13-.15-.13-.19-.13l-.61.02h-.38s-.78-.02-.78-.02c-.05,0-.19,0-.19.13,0,.06.06.11.13.11l.27.02c.22.02.29.14.31.41l.02,1.78v1.2c0,1.33.39,1.89.74,2.22.56.52,1.33.6,1.74.6.45,0,1.11-.06,1.74-.63.69-.61.78-1.67.78-2.51v-.88l.02-1.78c.02-.28.08-.38.25-.41,0,0,.19-.02.19-.02.08,0,.13-.05.13-.11,0-.13-.15-.13-.19-.13l-.55.02ZM38.82,102.32s-.19.8-.19.9.06.14.11.14c.09,0,.12-.07.14-.12,0,0,.13-.24.13-.24.12-.17.29-.23.79-.24,0,0,.91-.01,1.16-.02v3.43c0,.77,0,1.44-.04,1.78-.03.25-.07.38-.19.4-.19.03-.23.03-.23.03-.09,0-.13.06-.13.11,0,.13.15.13.19.13l.67-.02h.23s.92.02.92.02c.18,0,.19-.09.19-.13,0-.06-.04-.11-.13-.11l-.36-.03c-.2-.03-.24-.16-.27-.4-.04-.34-.04-1.01-.04-1.78v-3.43c.11,0,.98.02.98.02.79.02.93.21.95.4v.09c.01.08.02.2.14.2.02,0,.12,0,.12-.17v-.26s.02-.64.02-.64c0-.05,0-.17-.1-.17l-.1.02c-.12.02-.33.07-.72.07h-3.1s-.58-.03-.64-.04-.27-.07-.27-.07l-.1-.03s0,0,0,0c-.07,0-.1.09-.13.18M87.09,102.23c-.17.03-.34.04-.34.04,0,0-1.89,0-1.89,0h-.11s-.82-.03-.82-.03c-.05,0-.2,0-.2.13,0,.07.05.11.13.11l.27.02c.21.02.29.14.31.42l.02,1.78v1.45c0,.77,0,1.44-.04,1.78-.03.25-.07.38-.19.4-.03,0-.24.03-.24.03-.1,0-.13.06-.13.11,0,.13.14.13.19.13l.67-.02h.45s1.73.04,1.73.04c.33,0,.44,0,.51-.26.04-.17.11-.74.11-.82,0-.06,0-.19-.11-.19-.1,0-.12.11-.13.18-.05.32-.15.47-.33.55-.2.09-.56.09-.77.09-.8,0-.87-.1-.89-.62v-1.04s0-.36,0-.36v-.73s1.17.05,1.17.05c.28.03.36.15.37.24s.03.26.03.26c0,.09.05.14.12.14.12,0,.12-.15.12-.22l.03-.52.07-.47c0-.12-.08-.13-.1-.13-.04,0-.11.08-.17.12-.13.08-.13.08-.35.1l-1.31.02v-2.3c.11-.02.99-.01,1.12,0,.45.05.5.15.54.24,0,0,.04.27.04.27,0,.15.09.17.13.17.04,0,.1-.03.12-.14,0,0,.03-.42.03-.42v-.13s.06-.28.06-.28l.02-.11c0-.13-.07-.14-.1-.14s-.06.03-.13.04ZM99.99,102.27h-.26l-.71-.02s-.19,0-.19.13c0,.06.04.11.13.11l.24.03c.13.02.21.11.23.41,0,0,.02,1.78.02,1.78v1.45c0,.77,0,1.44-.04,1.78-.04.25-.07.38-.19.4,0,0-.24.03-.24.03-.11,0-.13.06-.13.11,0,.13.15.13.2.13l.68-.02h.23s.92.02.92.02c.18,0,.19-.09.19-.13,0-.05-.03-.11-.13-.11l-.36-.03c-.2-.03-.24-.16-.27-.4-.04-.34-.04-1.01-.04-1.78v-1.45l.02-1.78c.02-.28.08-.38.25-.41,0,0,.19-.02.19-.02.08,0,.13-.05.13-.11,0-.13-.15-.13-.2-.13l-.67.02ZM101.62,102.32s-.19.8-.19.9.06.14.11.14c.09,0,.12-.07.14-.12,0,0,.13-.24.13-.24.12-.17.29-.23.79-.24,0,0,.91-.01,1.16-.02v3.43c0,.77,0,1.44-.04,1.78-.03.25-.07.38-.19.4-.19.03-.23.03-.23.03-.09,0-.13.06-.13.11,0,.13.15.13.19.13l.67-.02h.23s.92.02.92.02c.18,0,.19-.09.19-.13,0-.06-.04-.11-.13-.11l-.36-.03c-.2-.03-.24-.16-.27-.4-.04-.34-.04-1.01-.04-1.78v-3.43c.11,0,.98.02.98.02.79.02.93.21.95.4v.09c.01.08.02.2.14.2.02,0,.12,0,.12-.17v-.26s.02-.64.02-.64c0-.05,0-.17-.1-.17l-.1.02c-.12.02-.33.07-.72.07h-3.1s-.58-.03-.64-.04-.27-.07-.27-.07l-.1-.03s0,0,0,0c-.07,0-.1.09-.13.18M94.32,108.49c0,.13-.16.13-.26.13h-.31c-.46,0-.69-.04-.91-.16-.34-.18-.61-.54-1.02-1.08,0,0-.99-1.39-1.03-1.39,0,0-1.06-.02-1.05-.01v.2c0,.77,0,1.44.04,1.78.02.24.07.37.27.4l.36.03c.11,0,.13.06.13.11,0,.04-.02.13-.2.13l-.92-.02s-.1,0-.13,0l-.74.02s-.2,0-.2-.13c0-.06.02-.1.13-.11,0,0,.23-.03.23-.03.12-.02.16-.16.19-.4.04-.34.04-1.01.04-1.78v-1.45l-.02-1.78c-.02-.28-.09-.39-.31-.41l-.26-.02c-.08,0-.13-.05-.13-.11,0-.13.15-.13.19-.13l.82.02h.38s.7-.02.7-.02c.51,0,1.09.04,1.55.37.22.16.6.59.6,1.18,0,.67-.31,1.28-.98,1.91.05.06.16.21.16.21.58.75,1.09,1.4,1.52,1.86.42.44.76.54.97.57h.04c.08.02.14.07.14.14ZM91.65,104.23c0-.99-.51-1.59-1.36-1.59-.26,0-.47.03-.53.05-.02,0-.03.02-.03.04v2.7s0,.03.03.05c.1.06.44.12.83.12.17,0,.4-.02.58-.15.3-.2.48-.66.48-1.22ZM48.41,118.83s-3.12,6.55-3.4,7.15c-.06-.11-3.42-7.06-3.42-7.06-.16-.32-.24-.41-.37-.41-.08,0-.19.06-.25.35l-1.25,8.23c-.07.46-.18.91-.49.97,0,0-.37.04-.37.04-.1,0-.23,0-.23.12,0,.17.19.17.26.17l.78-.02.47-.02h.4s.92.04.92.04c.16,0,.33-.01.33-.17,0-.07-.06-.1-.22-.12l-.52-.06c-.24-.06-.35-.18-.35-.37l.04-.59s.57-4.39.65-4.96c.1.17.61,1.25.61,1.25l.7,1.49c.15.35,1.13,2.25,1.45,2.87l.04.07c.19.36.31.58.43.58.14,0,.2-.13.5-.72l2.75-5.73c0,.05.75,5.54.75,5.54.02.11.02.2.02.27,0,.15-.03.22-.06.23-.08.04-.16.08-.16.17,0,.11.13.15.39.17.5.04,2.24.08,2.56.08.23,0,.36-.06.36-.17,0-.12-.16-.12-.23-.12-.17,0-.42-.01-.77-.13-.37-.11-.49-.49-.59-1.25l-1.15-7.8c-.04-.28-.12-.42-.26-.42s-.21.12-.31.32M63.12,118.81l-.67.02h-.64s-1.09-.04-1.09-.04c-.15,0-.31.01-.31.14,0,.14.12.13.25.14l.41.04c.41.04.5.29.52.69.03.4.03.75.03,2.67v2.22c0,1.16,0,2.16-.06,2.68-.06.41-.12.62-.34.67,0,0-.45.05-.45.05-.12,0-.23.01-.23.13,0,.16.21.16.28.16l.87-.03s.72-.01.72-.01l1.97.05,1.7.03c.66,0,.74-.06.83-.36.1-.37.19-1.31.19-1.46,0-.12,0-.25-.13-.25-.15,0-.16.14-.17.22-.02.24-.17.58-.32.74-.3.32-.75.34-1.45.34-1.01,0-1.31-.1-1.51-.27-.25-.22-.25-1.1-.25-2.69v-2.22c0-1.92,0-2.27.02-2.67.03-.46.14-.63.44-.69l.49-.04c.13,0,.26-.02.26-.14s-.14-.14-.3-.14l-1.05.02ZM71.16,127.64c.34.14.62.15.91.15.25,0,1.5-.08,1.5-1.58,0-.49-.12-1.72-1.21-2.49h0c-.26-.19-.55-.27-1.03-.3h-.54s-.04,0-.04.04v2.99c0,.83.04,1.03.42,1.18M71.24,119.36s-.41.02-.41.02c-.07.02-.09.05-.09.18v3.12c0,.09.03.1.06.11l.59.04c.37,0,.67-.04.89-.23.33-.27.51-.72.51-1.31,0-.74-.42-1.92-1.55-1.92M71.45,118.78c2.52,0,2.72,1.47,2.72,1.92,0,.97-.5,1.59-1.26,2.2,1.11.39,2.27,1.31,2.27,2.74s-1.05,2.78-3.4,2.78l-.39-.02s-.49-.02-.49-.02l-.94-.04s-.72.01-.72.01l-.87.02c-.07,0-.28,0-.28-.16,0-.12.11-.13.23-.13,0,0,.45-.05.45-.05.24-.05.29-.33.34-.67.06-.53.06-1.53.06-2.68v-2.22c0-1.92,0-2.27-.02-2.67-.02-.4-.07-.65-.52-.69l-.48-.04c-.15-.01-.25,0-.25-.14,0-.13.16-.14.31-.14l1.23.03h.49s.91,0,.91,0l.63-.02ZM78.28,123.19c0,2.75,1.58,4.68,3.84,4.68.87,0,2.9-.39,2.9-4.05,0-2.68-1.51-4.55-3.67-4.55-1.15,0-3.07.51-3.07,3.92M76.47,123.58c0-2.4,1.64-4.98,5.24-4.98,3.16,0,5.13,1.82,5.13,4.75s-2.16,5.21-5.25,5.21c-3.52,0-5.12-2.58-5.12-4.98M96.21,118.81l-1.82-.03c-.14,0-.3.01-.3.14,0,.14.4.15.69.18.36.04.5.29.52.69.02.4.02.75.02,2.67v1.58c0,1.35-.05,2.44-.72,3.11-.61.61-1.4.67-1.72.67-.44,0-1.01-.06-1.56-.51-.51-.41-.97-1.07-.97-3.08v-1.77c0-1.92,0-2.27.02-2.67.03-.46.14-.63.44-.69l.36-.04c.1-.01.23,0,.23-.14,0-.13-.16-.14-.31-.14l-.92.02-.63.02-.67-.02-1.17-.02c-.15,0-.31.01-.31.14,0,.14.13.14.25.14,0,0,.11,0,.48.04s.5.29.52.69c.03.4.03.75.03,2.67v1.84c0,1.6.36,2.67,1.13,3.37.97.88,2.27.88,2.82.88.73,0,1.7-.1,2.65-.92,1.06-.91,1.21-2.38,1.21-3.82v-1.35c0-1.92,0-2.27.02-2.67.03-.46.14-.63.44-.69,0,0,.36-.04.36-.04.15-.01.26-.02.26-.14,0-.13-.15-.14-.3-.14l-1.07.03ZM101.48,123.67c.23.08.59.12.95.12.5,0,.66-.05.88-.21.27-.2.73-.71.73-1.87,0-1.8-1.19-2.28-1.9-2.28-.34,0-.55.02-.66.05-.07.02-.09.05-.09.15v3.84c0,.13.02.17.09.2M102.38,118.78c.76,0,1.63.06,2.34.55.3.2.87.83.87,1.75,0,1.04-.5,1.88-1.65,2.83.03.04.42.53.42.53.92,1.16,1.65,2.08,2.29,2.76.68.71,1.18.81,1.38.85h.03c.14.03.18.11.18.17,0,.16-.18.16-.27.16h-.86c-.69,0-1.02-.06-1.36-.24-.53-.28-1-.85-1.74-1.86l-.64-.91s-.6-.83-.6-.83c-.05-.06-.12-.08-.2-.08l-1.1-.02c-.05,0-.07.02-.07.07v.18c0,1.16,0,2.17.06,2.7.04.4.13.62.47.67l.61.05c.16,0,.18.09.18.13,0,.16-.21.16-.28.16l-1.45-.03h-.41s-.51,0-.51,0l-1.03.02c-.07,0-.28,0-.28-.16,0-.12.12-.12.23-.13l.45-.05c.24-.05.29-.33.34-.67.06-.53.06-1.53.06-2.68v-2.22c0-1.92,0-2.27-.02-2.67-.02-.4-.11-.64-.52-.69l-.48-.04c-.08,0-.25,0-.25-.14,0-.13.16-.14.31-.14l1.22.02h.51s.93,0,.93,0l.85-.02ZM110.27,119.03l-.11,7.47c-.01,1.09-.06,1.44-.37,1.54-.19.05-.33.06-.46.06-.06,0-.23,0-.23.13,0,.16.18.16.31.16l1.05-.03h.56s1.13.03,1.13.03c.1,0,.32,0,.32-.16,0-.13-.17-.13-.25-.13-.19,0-.35-.01-.57-.09-.27-.09-.4-.51-.42-1.37,0,0-.14-5.13-.14-5.24.07.06.26.26.26.26.53.58,1.63,1.8,2.73,2.88l1.67,1.68,2.05,2.03c.14.14.3.28.45.28.17,0,.19-.21.19-.42l.14-7.96c.01-.71.04-.98.36-1.04,0,0,.37-.04.37-.04.2-.01.26-.05.26-.14,0-.15-.19-.15-.32-.15l-.93.03h-.23s-.45,0-.45,0l-1-.02c-.15,0-.36,0-.36.15,0,.13.12.14.23.14.18,0,.39,0,.58.07.27.11.4.31.41,1.11,0,0,.12,5.34.13,5.67l-.03-.04s-.88-.93-.88-.93l-1.87-1.94c-1.92-1.91-3.89-4.03-3.91-4.05l-.12-.13c-.15-.16-.25-.27-.37-.27-.18,0-.2.26-.2.46M125.74,118.81c-.17.01-2.27.01-3.15.01l-.64-.02h-.15s-1.02-.02-1.02-.02c-.15,0-.31.01-.31.14,0,.15.15.15.25.15l.48.04c.44.05.5.29.52.69.03.4.03.75.03,2.67v2.22c0,1.16,0,2.16-.06,2.68-.05.34-.1.62-.34.67l-.45.05c-.14.01-.23.01-.23.13,0,.16.21.16.28.16l.87-.02s.72-.01.72-.01l1.31.04h.37s1.82.04,1.82.04c.47,0,.62,0,.71-.35.06-.26.17-1.11.17-1.41,0-.13,0-.26-.13-.26-.12,0-.15.09-.17.22-.09.52-.24.77-.55.91-.32.15-.86.15-1.17.15-1.31,0-1.46-.21-1.48-1.03v-1.43s0-.52,0-.52v-1c0-.09.02-.09.04-.09.28,0,1.55.01,1.79.04.4.04.61.19.68.47l.04.34v.11c0,.09.06.14.15.14.15,0,.15-.17.15-.27l.02-.41.03-.44.09-.78.02-.14c0-.08-.04-.13-.12-.13s-.13.06-.21.16c-.12.14-.31.17-.6.2-.18.02-.9.03-2.02.03-.04,0-.06-.01-.06-.11v-3.19c0-.09.03-.09.06-.09.24,0,1.57.02,1.79.05.63.08.74.23.82.44.07.17.07.42.07.44,0,.06,0,.21.14.21.12,0,.15-.12.16-.16,0,0,.05-.58.05-.58l.02-.26s.08-.7.08-.7l.02-.12c.01-.11-.04-.15-.11-.14-.11,0-.51.12-.75.13ZM57.89,118.81c-.17.01-2.27.01-3.15.01l-.64-.02h-.15s-1.02-.02-1.02-.02c-.15,0-.31.01-.31.14,0,.15.15.15.25.15l.48.04c.44.05.5.29.52.69.03.4.03.75.03,2.67v2.22c0,1.16,0,2.16-.06,2.68-.05.34-.1.62-.34.67l-.45.05c-.14.01-.23.01-.23.13,0,.16.21.16.28.16l.87-.02s.72-.01.72-.01l1.31.04h.37s1.82.04,1.82.04c.47,0,.62,0,.71-.35.06-.26.17-1.11.17-1.41,0-.13,0-.26-.13-.26-.12,0-.15.09-.17.22-.09.52-.24.77-.55.91-.32.15-.86.15-1.17.15-1.31,0-1.46-.21-1.48-1.03v-1.43s0-.52,0-.52v-1c0-.09.02-.09.04-.09.28,0,1.55.01,1.79.04.4.04.61.19.68.47l.04.34v.11c0,.09.06.14.15.14.15,0,.15-.17.15-.27l.02-.41.03-.44.09-.78.02-.14c0-.08-.04-.13-.12-.13s-.13.06-.21.16c-.12.14-.31.17-.6.2-.18.02-.9.03-2.02.03-.04,0-.06-.01-.06-.11v-3.19c0-.09.03-.09.06-.09.24,0,1.57.02,1.79.05.63.08.74.23.82.44.07.17.07.42.07.44,0,.06,0,.21.14.21.12,0,.15-.12.16-.16,0,0,.05-.58.05-.58l.02-.26s.08-.7.08-.7l.02-.12c.01-.11-.04-.15-.11-.14-.11,0-.51.12-.75.13Z"/>
  </g>
  <g>
    <path class="cls-5" d="M38.95,214.07v-28.03h6.92l4.51,12.47c.28.83.56,1.68.82,2.56.26.88.53,1.74.82,2.6h.17c.29-.86.55-1.73.8-2.6.24-.87.51-1.73.8-2.56l4.43-12.47h6.88v28.03h-5.76v-10.27c0-.69.03-1.45.09-2.28.06-.83.13-1.67.21-2.51s.17-1.68.26-2.49c.09-.82.17-1.57.26-2.26h-.17l-2.28,6.66-4,10.7h-3.48l-4-10.7-2.23-6.66h-.17c.09.69.17,1.44.26,2.26.09.82.17,1.65.26,2.49s.16,1.68.21,2.51c.06.83.09,1.59.09,2.28v10.27h-5.67Z"/>
    <path class="cls-5" d="M70.84,214.07v-28.03h17.54v5.33h-11.22v5.63h9.54v5.29h-9.54v6.45h11.65v5.33h-17.97Z"/>
    <path class="cls-5" d="M93.55,214.07v-28.03h6.32v22.7h11.09v5.33h-17.41Z"/>
    <path class="cls-5" d="M114.61,214.07v-28.03h9.58c1.46,0,2.82.11,4.06.32,1.25.21,2.33.59,3.27,1.14.93.54,1.66,1.26,2.19,2.15.53.89.8,2.01.8,3.35,0,.63-.09,1.26-.26,1.89s-.42,1.22-.73,1.76c-.31.55-.69,1.03-1.14,1.46-.44.43-.95.75-1.53.94v.17c.72.17,1.38.44,1.98.8.6.36,1.13.81,1.59,1.35.46.54.82,1.18,1.07,1.91.26.73.39,1.57.39,2.52,0,1.43-.28,2.66-.84,3.69-.56,1.03-1.33,1.88-2.32,2.56-.99.68-2.14,1.18-3.46,1.51s-2.74.49-4.25.49h-10.4ZM120.93,197.26h2.96c1.55,0,2.67-.3,3.37-.9.7-.6,1.05-1.4,1.05-2.41,0-1.09-.36-1.86-1.07-2.32-.72-.46-1.82-.69-3.31-.69h-3.01v6.32h0ZM120.93,209.17h3.57c3.47,0,5.2-1.26,5.2-3.78,0-1.23-.43-2.11-1.29-2.64-.86-.53-2.16-.8-3.91-.8h-3.57v7.22Z"/>
    <path class="cls-5" d="M151.31,214.58c-1.89,0-3.62-.33-5.18-1.01-1.56-.67-2.9-1.64-4.02-2.9-1.12-1.26-1.99-2.79-2.6-4.6-.62-1.81-.92-3.85-.92-6.15s.31-4.33.92-6.12c.61-1.79,1.48-3.29,2.6-4.51,1.12-1.22,2.46-2.15,4.02-2.79,1.56-.65,3.29-.97,5.18-.97s3.62.32,5.19.97c1.55.64,2.9,1.58,4.01,2.82,1.12,1.23,1.99,2.74,2.6,4.53s.93,3.82.93,6.08-.32,4.34-.93,6.15-1.48,3.34-2.6,4.6c-1.11,1.26-2.46,2.23-4.01,2.9-1.57.67-3.29,1.01-5.19,1.01ZM151.31,209.13c1.92,0,3.44-.83,4.56-2.48,1.11-1.64,1.67-3.89,1.67-6.72s-.56-5-1.67-6.58c-1.12-1.58-2.64-2.36-4.56-2.36s-3.44.79-4.56,2.36c-1.12,1.58-1.68,3.77-1.68,6.58s.56,5.08,1.68,6.72c1.12,1.65,2.64,2.48,4.56,2.48Z"/>
    <path class="cls-5" d="M179.45,214.58c-3.64,0-6.42-1.07-8.34-3.22-1.92-2.15-2.88-5.57-2.88-10.27v-15.04h6.36v15.69c0,2.75.42,4.67,1.25,5.76s2.04,1.64,3.61,1.64,2.79-.55,3.65-1.64c.86-1.09,1.29-3.01,1.29-5.76v-15.69h6.1v15.04c0,4.7-.93,8.13-2.81,10.27-1.88,2.15-4.62,3.22-8.23,3.22Z"/>
    <path class="cls-5" d="M196.08,214.07v-28.03h10.1c1.49,0,2.89.14,4.19.43,1.31.29,2.44.77,3.42,1.44.97.67,1.75,1.57,2.32,2.69.57,1.12.86,2.51.86,4.17,0,2.06-.45,3.76-1.35,5.09-.9,1.33-2.11,2.33-3.63,2.99l6.36,11.22h-7.09l-5.37-10.1h-3.48v10.1h-6.32ZM202.4,198.94h3.27c1.66,0,2.93-.35,3.8-1.05.88-.7,1.31-1.74,1.31-3.12s-.44-2.33-1.31-2.88c-.87-.54-2.14-.82-3.8-.82h-3.27v7.87Z"/>
    <path class="cls-5" d="M221.66,214.07v-28.03h6.49l7.31,13.93,2.75,6.19h.17c-.14-1.49-.31-3.15-.5-4.99-.19-1.83-.28-3.58-.28-5.24v-9.89h6.02v28.03h-6.49l-7.31-13.97-2.75-6.1h-.17c.14,1.55.31,3.21.49,4.99.19,1.78.28,3.5.28,5.16v9.93h-6.02Z"/>
    <path class="cls-5" d="M249.36,214.07v-28.03h17.54v5.33h-11.22v5.63h9.54v5.29h-9.54v6.45h11.65v5.33h-17.97Z"/>
  </g>
  <g>
    <path class="cls-3" d="M38.95,263.87v-39.37h13.52c2.17,0,4.21.21,6.1.63,1.89.43,3.54,1.13,4.95,2.11,1.41.99,2.53,2.3,3.35,3.93.82,1.63,1.24,3.63,1.24,6.01s-.41,4.28-1.24,5.98c-.83,1.69-1.94,3.08-3.35,4.16-1.41,1.09-3.04,1.9-4.89,2.42-1.85.53-3.83.79-5.92.79h-4.89v13.34h-8.88ZM47.83,243.46h4.35c4.83,0,7.25-2.09,7.25-6.27,0-2.06-.64-3.5-1.93-4.35-1.29-.84-3.14-1.26-5.56-1.26h-4.1v11.89Z"/>
    <path class="cls-3" d="M73.21,263.87v-39.37h8.88v31.88h15.58v7.49h-24.45Z"/>
    <path class="cls-3" d="M117.76,264.59c-5.11,0-9.02-1.51-11.71-4.53-2.7-3.01-4.05-7.82-4.05-14.43v-21.13h8.94v22.04c0,3.86.58,6.56,1.75,8.09,1.17,1.53,2.86,2.3,5.07,2.3s3.92-.77,5.13-2.3,1.81-4.23,1.81-8.09v-22.04h8.58v21.13c0,6.61-1.32,11.41-3.96,14.43-2.64,3.02-6.49,4.53-11.56,4.53Z"/>
    <path class="cls-3" d="M152.51,264.59c-2.58,0-5.14-.47-7.7-1.42-2.55-.95-4.84-2.37-6.85-4.26l5.07-6.1c1.41,1.21,2.97,2.2,4.68,2.96,1.71.76,3.39,1.15,5.04,1.15,1.85,0,3.23-.34,4.14-1.03.91-.68,1.36-1.61,1.36-2.78,0-.6-.13-1.13-.39-1.57-.26-.44-.64-.84-1.15-1.18s-1.11-.67-1.81-.96c-.7-.3-1.48-.63-2.32-1l-5.13-2.18c-1.01-.4-1.98-.93-2.93-1.57-.95-.65-1.79-1.4-2.54-2.26-.75-.87-1.34-1.87-1.78-3.02-.44-1.15-.66-2.44-.66-3.9,0-1.61.34-3.13,1.03-4.56.68-1.43,1.65-2.68,2.9-3.74s2.73-1.9,4.44-2.51c1.71-.61,3.59-.91,5.65-.91,2.29,0,4.56.44,6.79,1.33,2.23.89,4.2,2.18,5.89,3.86l-4.53,5.62c-1.29-1-2.58-1.78-3.86-2.32s-2.72-.82-4.29-.82-2.75.32-3.65.94c-.9.62-1.36,1.5-1.36,2.63,0,.6.15,1.12.45,1.54.3.42.72.81,1.27,1.14.54.34,1.18.67,1.9.97.72.3,1.51.63,2.35,1l5.07,2.05c2.42.97,4.32,2.3,5.71,3.98,1.39,1.69,2.08,3.93,2.08,6.71,0,1.65-.33,3.21-1,4.68-.66,1.47-1.63,2.76-2.9,3.86-1.27,1.11-2.83,1.99-4.68,2.66-1.86.67-3.95,1-6.28,1Z"/>
  </g>
  <polygon class="cls-4" points="199.95 .06 200.66 104.77 295.95 200.06 200.66 295.35 199.95 400.06 399.95 200.06 199.95 .06"/>
  <g>
    <rect x="38.57" width="4" y="343.97" height="17.73" class="cls-5"/>
    <path class="cls-5" d="M46.3,361.7v-17.73h4.11l4.62,8.81,1.74,3.92h.11c-.09-.94-.19-1.99-.31-3.15-.12-1.16-.18-2.27-.18-3.32v-6.26h3.81v17.73h-4.11l-4.62-8.84-1.74-3.86h-.11c.09.98.19,2.03.31,3.16s.18,2.21.18,3.26v6.28h-3.81Z"/>
    <path class="cls-5" d="M63.92,361.7v-17.73h4.11l4.62,8.81,1.74,3.92h.11c-.09-.94-.19-1.99-.31-3.15-.12-1.16-.18-2.27-.18-3.32v-6.26h3.81v17.73h-4.11l-4.62-8.84-1.74-3.86h-.11c.09.98.19,2.03.31,3.16.12,1.12.18,2.21.18,3.26v6.28h-3.81Z"/>
    <path class="cls-5" d="M88.78,362.03c-1.2,0-2.29-.21-3.28-.64-.99-.43-1.84-1.04-2.54-1.84-.71-.8-1.26-1.77-1.65-2.91s-.58-2.44-.58-3.89.19-2.74.58-3.88c.39-1.13.94-2.08,1.65-2.86.71-.77,1.56-1.36,2.54-1.77.99-.41,2.08-.61,3.28-.61s2.29.2,3.28.61c.99.41,1.84,1,2.54,1.78s1.26,1.74,1.65,2.87c.39,1.13.58,2.42.58,3.85s-.19,2.75-.58,3.89c-.39,1.14-.94,2.11-1.65,2.91-.71.8-1.56,1.41-2.54,1.84-.99.43-2.08.64-3.28.64M88.78,358.58c1.21,0,2.18-.52,2.88-1.56.71-1.04,1.06-2.46,1.06-4.26s-.35-3.16-1.06-4.16c-.71-1-1.67-1.5-2.88-1.5s-2.18.5-2.88,1.5-1.06,2.39-1.06,4.16.35,3.21,1.06,4.26,1.67,1.56,2.88,1.56"/>
    <path class="cls-5" d="M102.62,361.7l-5.36-17.73h4.24l2.12,8.27c.27.98.51,1.93.72,2.84.21.92.45,1.86.72,2.84h.11c.25-.98.49-1.93.71-2.84.22-.92.45-1.86.71-2.84l2.09-8.27h4.08l-5.33,17.73h-4.82Z"/>
    <path class="cls-5" d="M111.58,361.7l5.55-17.73h4.81l5.55,17.73h-4.24l-1.09-4.22h-5.41l-1.09,4.22h-4.08ZM118,352.73l-.44,1.63h3.78l-.41-1.63c-.25-.89-.5-1.83-.73-2.83-.24-1-.47-1.96-.71-2.88h-.11c-.22.94-.44,1.91-.67,2.9s-.47,1.93-.72,2.82"/>
    <polygon class="cls-5" points="131.27 361.7 131.27 347.34 126.41 347.34 126.41 343.97 140.17 343.97 140.17 347.34 135.3 347.34 135.3 361.7 131.27 361.7"/>
    <rect x="142.4" width="4" y="343.97" height="17.73" class="cls-5"/>
    <path class="cls-5" d="M157.39,362.03c-1.2,0-2.29-.21-3.28-.64-.99-.43-1.84-1.04-2.54-1.84-.71-.8-1.26-1.77-1.65-2.91s-.59-2.44-.59-3.89.2-2.74.59-3.88c.39-1.13.94-2.08,1.65-2.86.71-.77,1.55-1.36,2.54-1.77.99-.41,2.08-.61,3.28-.61s2.29.2,3.28.61c.99.41,1.84,1,2.54,1.78.71.78,1.26,1.74,1.65,2.87.39,1.13.58,2.42.58,3.85s-.19,2.75-.58,3.89c-.39,1.14-.94,2.11-1.65,2.91-.71.8-1.56,1.41-2.54,1.84-.99.43-2.08.64-3.28.64M157.39,358.58c1.21,0,2.18-.52,2.88-1.56.71-1.04,1.06-2.46,1.06-4.26s-.35-3.16-1.06-4.16-1.67-1.5-2.88-1.5-2.18.5-2.88,1.5-1.06,2.39-1.06,4.16.35,3.21,1.06,4.26,1.67,1.56,2.88,1.56"/>
    <path class="cls-5" d="M168.36,361.7v-17.73h4.11l4.62,8.81,1.74,3.92h.11c-.09-.94-.19-1.99-.31-3.15-.12-1.16-.18-2.27-.18-3.32v-6.26h3.81v17.73h-4.11l-4.62-8.84-1.74-3.86h-.11c.09.98.19,2.03.31,3.16s.18,2.21.18,3.26v6.28h-3.81Z"/>
  </g>
</svg>