<?xml version="1.0" encoding="UTF-8"?>
<svg id="Layer_2" data-name="Layer 2" xmlns="http://www.w3.org/2000/svg" viewBox="0 0 430.83 157.88">
  <defs>
    <style>
      .cls-1 {
        letter-spacing: .07em;
      }

      .cls-1, .cls-2, .cls-3 {
        fill: #0d1f1a;
      }

      .cls-1, .cls-3 {
        font-family: Satoshi-Bold, Satoshi;
        font-size: 48px;
        font-weight: 700;
      }

      .cls-2 {
        stroke-width: 0px;
      }

      .cls-3 {
        letter-spacing: .08em;
      }
    </style>
  </defs>
  <g id="Layer_1-2" data-name="Layer 1">
    <text class="cls-3" transform="translate(0 93.86)"><tspan x="0" y="0">Bimal</tspan></text>
    <g>
      <path class="cls-2" d="M220.78,94.04h-9.72c-2.21,0-4.42-.18-6.6-.54l-2.15-.35c-.75-.12-1.51-.27-2.26-.44-.97-.21-1.92-.46-2.87-.74-1.77-.53-3.52-1.18-5.21-1.95-1.58-.72-3.11-1.54-4.58-2.45-1.47-.91-2.89-1.92-4.24-3.01l-1.66-1.35c-2.36-1.91-4.49-4.07-6.37-6.45l-1.53-1.93c-1.51-1.91-2.85-3.96-3.99-6.11l-.34-.62c-.98-1.84-1.82-3.76-2.51-5.73l-1.07-3.06c-1.53-4.35-2.3-8.93-2.3-13.54V0h14.84c7.24,0,13.1,5.87,13.1,13.1v36.03c0,2.09.16,4.17.48,6.22.47,3.06,1.28,6.05,2.43,8.94l.65,1.63c2.5,6.28,6.53,11.84,11.7,16.19l14.19,11.92Z"/>
      <path class="cls-2" d="M280.6,61.59h-25.83c-3.07-15.12-16.43-26.49-32.45-26.49-13.73,0-25.51,8.35-30.52,20.26-.32-2.05-.48-4.13-.48-6.22v-9.12c7.84-15.24,23.72-25.67,42.04-25.67,26.09,0,47.24,21.15,47.24,47.24Z"/>
      <path class="cls-2" d="M282.81,112.1v45.78h-14.84c-7.24,0-13.1-5.87-13.1-13.1v-36.03c0-2.09-.16-4.17-.48-6.22-.47-3.06-1.28-6.05-2.43-8.94l-.65-1.63c-2.5-6.28-6.53-11.84-11.7-16.19l-14.19-11.92h9.72c2.21,0,4.42.18,6.6.54l2.15.35c.75.12,1.51.27,2.26.44.97.21,1.92.46,2.87.74,1.77.53,3.52,1.18,5.21,1.95,1.58.72,3.11,1.54,4.58,2.45,1.47.91,2.89,1.92,4.24,3.01l1.66,1.35c2.36,1.91,4.49,4.07,6.37,6.45l1.53,1.93c1.51,1.91,2.85,3.96,3.99,6.11l.34.62c.98,1.84,1.82,3.76,2.51,5.73l1.07,3.06c1.53,4.35,2.3,8.93,2.3,13.54Z"/>
      <path class="cls-2" d="M254.87,108.74v9.12c-7.84,15.24-23.72,25.67-42.04,25.67-26.09,0-47.24-21.15-47.24-47.24h25.83c3.07,15.12,16.43,26.49,32.45,26.49,13.73,0,25.51-8.35,30.52-20.26.32,2.05.48,4.13.48,6.22Z"/>
    </g>
    <text class="cls-1" transform="translate(307.81 93.85)"><tspan x="0" y="0">Sunil</tspan></text>
  </g>
</svg>