<?xml version="1.0" encoding="UTF-8"?>
<svg id="Layer_2" data-name="Layer 2" xmlns="http://www.w3.org/2000/svg" viewBox="0 0 134.69 178.06">
  <defs>
    <style>
      .cls-1 {
        fill: #0d1f1a;
        stroke-width: 0px;
      }
    </style>
  </defs>
  <g id="Layer_1-2" data-name="Layer 1">
    <g>
      <path class="cls-1" d="M64.73,106.06h-10.96c-2.49,0-4.98-.2-7.44-.6l-2.42-.4c-.85-.14-1.7-.3-2.54-.49-1.09-.24-2.17-.52-3.23-.84-2-.6-3.97-1.33-5.88-2.2-1.78-.81-3.51-1.73-5.16-2.76-1.66-1.03-3.26-2.16-4.78-3.39l-1.88-1.52c-2.66-2.15-5.07-4.59-7.19-7.28l-1.72-2.18c-1.7-2.16-3.21-4.46-4.5-6.89l-.38-.7c-1.11-2.08-2.06-4.24-2.83-6.46l-1.21-3.46c-1.72-4.91-2.6-10.07-2.6-15.27V0h16.74c8.16,0,14.78,6.62,14.78,14.78v40.64c0,2.36.18,4.7.54,7.02.53,3.45,1.45,6.83,2.74,10.08l.74,1.84c2.82,7.09,7.36,13.35,13.2,18.26l16,13.44Z"/>
      <path class="cls-1" d="M132.21,69.46h-29.13c-3.46-17.05-18.53-29.88-36.6-29.88-15.48,0-28.77,9.42-34.42,22.85-.36-2.32-.54-4.66-.54-7.02v-10.28c8.84-17.19,26.75-28.95,47.41-28.95,29.42,0,53.28,23.86,53.28,53.28Z"/>
      <path class="cls-1" d="M134.69,126.43v51.63h-16.74c-8.16,0-14.78-6.62-14.78-14.78v-40.64c0-2.36-.18-4.7-.54-7.02-.53-3.45-1.45-6.83-2.74-10.08l-.74-1.84c-2.82-7.09-7.36-13.35-13.2-18.26l-16-13.44h10.96c2.49,0,4.98.2,7.44.6l2.42.4c.85.14,1.7.3,2.54.49,1.09.24,2.17.52,3.23.84,2,.6,3.97,1.33,5.88,2.2,1.78.81,3.51,1.73,5.16,2.76,1.66,1.03,3.26,2.16,4.78,3.39l1.88,1.52c2.66,2.15,5.07,4.59,7.19,7.28l1.72,2.18c1.7,2.16,3.21,4.46,4.5,6.89l.38.7c1.11,2.08,2.06,4.24,2.83,6.46l1.21,3.46c1.72,4.91,2.6,10.07,2.6,15.27Z"/>
      <path class="cls-1" d="M103.18,122.64v10.28c-8.84,17.19-26.75,28.95-47.41,28.95-29.42,0-53.28-23.86-53.28-53.28h29.13c3.46,17.05,18.53,29.88,36.6,29.88,15.48,0,28.77-9.42,34.42-22.85.36,2.32.54,4.66.54,7.02Z"/>
    </g>
  </g>
</svg>