<?xml version="1.0" encoding="UTF-8"?>
<svg id="Layer_2" data-name="Layer 2" xmlns="http://www.w3.org/2000/svg" viewBox="0 0 250 263">
  <defs>
    <style>
      .cls-1 {
        fill: #f0f4f3;
        stroke-width: 0px;
      }
    </style>
  </defs>
  <g id="Layer_1-2" data-name="Layer 1">
    <path class="cls-1" d="M160.06,0h-70.12C40.27,0,0,40.27,0,89.94v83.12c0,49.67,40.27,89.94,89.94,89.94h70.12c49.67,0,89.94-40.27,89.94-89.94v-83.12C250,40.27,209.73,0,160.06,0ZM57.29,42.94h16.74c8.16,0,14.77,6.61,14.77,14.78v30.35c8.84-17.19,26.75-28.95,47.41-28.95,29.43,0,53.28,23.86,53.28,53.28h-29.13c-3.46-17.05-18.53-29.88-36.59-29.88-15.49,0-28.77,9.43-34.43,22.85.53,3.45,1.45,6.83,2.75,10.08l.73,1.85c2.83,7.08,7.36,13.35,13.2,18.26l16,13.44h-10.96c-2.49,0-4.98-.2-7.44-.6l-2.43-.4c-.85-.14-1.7-.3-2.54-.49-1.09-.24-2.17-.52-3.23-.84-2-.6-3.97-1.33-5.88-2.2-1.78-.81-3.5-1.73-5.16-2.76-1.67-1.03-3.26-2.16-4.78-3.39l-1.88-1.52c-2.66-2.15-5.07-4.59-7.19-7.27l-1.72-2.19c-1.7-2.15-3.21-4.46-4.5-6.88l-.38-.7c-1.1-2.08-2.05-4.24-2.83-6.47l-1.21-3.45c-1.72-4.91-2.6-10.07-2.6-15.28v-51.62ZM191.98,221h-16.73c-8.16,0-14.78-6.62-14.78-14.78v-30.36c-8.84,17.19-26.75,28.96-47.41,28.96-29.42,0-53.28-23.86-53.28-53.29h29.13c3.46,17.05,18.53,29.88,36.6,29.88,15.48,0,28.76-9.42,34.42-22.84-.53-3.45-1.45-6.83-2.74-10.09l-.74-1.84c-2.82-7.09-7.36-13.35-13.19-18.26l-16.01-13.44h10.97c2.49,0,4.98.2,7.44.6l2.42.4c.85.14,1.7.3,2.54.49,1.1.24,2.17.52,3.24.84,2,.6,3.97,1.33,5.87,2.2,1.78.8,3.51,1.73,5.17,2.76,1.66,1.02,3.25,2.16,4.78,3.39l1.87,1.52c2.66,2.15,5.07,4.59,7.19,7.27l1.72,2.18c1.7,2.16,3.21,4.46,4.5,6.89l.38.7c1.11,2.08,2.06,4.24,2.84,6.46l1.21,3.46c1.72,4.91,2.59,10.07,2.59,15.27v51.63Z"/>
  </g>
</svg>